<svg width="358" height="200" viewBox="0 0 358 200" fill="none" xmlns="http://www.w3.org/2000/svg">
<rect width="358" height="200" rx="15" fill="#000B49"/>
<mask id="mask0_35_261" style="mask-type:alpha" maskUnits="userSpaceOnUse" x="0" y="0" width="358" height="200">
<rect width="358" height="200" rx="15" fill="#05081A"/>
</mask>
<g mask="url(#mask0_35_261)">
<path d="M165.766 230.987L0 64.3351V-24.546C0 -57.8763 40.3966 -74.5415 64.0774 -50.9325L268.847 153.216L192.232 229.598C185.267 237.931 172.73 237.931 165.766 230.987Z" fill="#001277"/>
<path d="M285.563 135.162L357.998 64.3351V-24.5459C357.998 -57.8763 317.601 -74.5415 293.921 -50.9325L195.019 46.2811L285.563 135.162Z" fill="#001277"/>
<path d="M0 205.987V101.829L110.046 211.542C121.19 224.041 112.832 243.483 97.5091 243.483H37.6107C16.7159 243.483 0 226.818 0 205.987Z" fill="#001277"/>
<path d="M358.001 205.987V101.829L247.955 211.542C236.811 224.041 245.169 243.483 261.884 243.483H320.39C341.285 243.483 358.001 226.818 358.001 205.987Z" fill="#001277"/>
</g>
<path d="M36.2642 83V68.4545H42.0028C43.1013 68.4545 44.0388 68.651 44.8153 69.044C45.5966 69.4323 46.1908 69.9839 46.598 70.6989C47.0099 71.4091 47.2159 72.2448 47.2159 73.206C47.2159 74.1719 47.0076 75.0028 46.5909 75.6989C46.1742 76.3902 45.5705 76.9205 44.7798 77.2898C43.9938 77.6591 43.0421 77.8438 41.9247 77.8438H38.0824V75.3722H41.4276C42.0147 75.3722 42.5024 75.2917 42.8906 75.1307C43.2789 74.9697 43.5677 74.7282 43.7571 74.4062C43.9512 74.0843 44.0483 73.6842 44.0483 73.206C44.0483 72.723 43.9512 72.3158 43.7571 71.9844C43.5677 71.6529 43.2765 71.402 42.8835 71.2315C42.4953 71.0563 42.0052 70.9688 41.4134 70.9688H39.3395V83H36.2642ZM44.1193 76.3807L47.7344 83H44.3395L40.8026 76.3807H44.1193ZM54.1282 83.2131C53.006 83.2131 52.0401 82.9858 51.2305 82.5312C50.4255 82.072 49.8053 81.4233 49.3697 80.5852C48.9341 79.7424 48.7163 78.7457 48.7163 77.5952C48.7163 76.473 48.9341 75.4882 49.3697 74.6406C49.8053 73.7931 50.4184 73.1326 51.2092 72.6591C52.0046 72.1856 52.9374 71.9489 54.0075 71.9489C54.7272 71.9489 55.3971 72.0649 56.0174 72.2969C56.6424 72.5241 57.1869 72.8674 57.6509 73.3267C58.1197 73.786 58.4843 74.3636 58.7447 75.0597C59.0051 75.7509 59.1353 76.5606 59.1353 77.4886V78.3196H49.9237V76.4446H56.2873C56.2873 76.009 56.1926 75.6231 56.0032 75.2869C55.8138 74.9508 55.551 74.688 55.2148 74.4986C54.8834 74.3045 54.4975 74.2074 54.0572 74.2074C53.5979 74.2074 53.1907 74.3139 52.8356 74.527C52.4852 74.7353 52.2106 75.017 52.0117 75.3722C51.8129 75.7225 51.7111 76.1132 51.7063 76.544V78.3267C51.7063 78.8665 51.8058 79.3329 52.0046 79.7259C52.2082 80.1188 52.4947 80.4219 52.864 80.6349C53.2333 80.848 53.6713 80.9545 54.1779 80.9545C54.5141 80.9545 54.8219 80.9072 55.1012 80.8125C55.3806 80.7178 55.6197 80.5758 55.8185 80.3864C56.0174 80.197 56.1689 79.965 56.2731 79.6903L59.0714 79.875C58.9293 80.5473 58.6381 81.1345 58.1978 81.6364C57.7622 82.1335 57.1987 82.5218 56.5075 82.8011C55.8209 83.0758 55.0278 83.2131 54.1282 83.2131ZM61.1097 83V72.0909H64.1353V83H61.1097ZM62.6296 70.6847C62.1798 70.6847 61.7939 70.5355 61.4719 70.2372C61.1547 69.9342 60.9961 69.572 60.9961 69.1506C60.9961 68.7339 61.1547 68.3764 61.4719 68.0781C61.7939 67.7751 62.1798 67.6236 62.6296 67.6236C63.0794 67.6236 63.4629 67.7751 63.7802 68.0781C64.1022 68.3764 64.2631 68.7339 64.2631 69.1506C64.2631 69.572 64.1022 69.9342 63.7802 70.2372C63.4629 70.5355 63.0794 70.6847 62.6296 70.6847ZM69.5845 76.6932V83H66.5589V72.0909H69.4425V74.0156H69.5703C69.8118 73.3812 70.2166 72.8793 70.7848 72.5099C71.353 72.1359 72.0419 71.9489 72.8516 71.9489C73.6091 71.9489 74.2696 72.1146 74.8331 72.446C75.3965 72.7775 75.8345 73.2509 76.147 73.8665C76.4595 74.4773 76.6158 75.2064 76.6158 76.054V83H73.5902V76.5938C73.5949 75.9261 73.4245 75.4053 73.0788 75.0312C72.7332 74.6525 72.2573 74.4631 71.6513 74.4631C71.2441 74.4631 70.8842 74.5507 70.5717 74.7259C70.264 74.901 70.0225 75.1567 69.8473 75.4929C69.6768 75.8243 69.5893 76.2244 69.5845 76.6932ZM88.7802 72.0909L84.9663 83H81.5572L77.7433 72.0909H80.9393L83.2049 79.8963H83.3185L85.5771 72.0909H88.7802ZM94.9485 83.2131C93.8263 83.2131 92.8604 82.9858 92.0508 82.5312C91.2459 82.072 90.6256 81.4233 90.19 80.5852C89.7544 79.7424 89.5366 78.7457 89.5366 77.5952C89.5366 76.473 89.7544 75.4882 90.19 74.6406C90.6256 73.7931 91.2388 73.1326 92.0295 72.6591C92.8249 72.1856 93.7577 71.9489 94.8278 71.9489C95.5475 71.9489 96.2174 72.0649 96.8377 72.2969C97.4627 72.5241 98.0072 72.8674 98.4712 73.3267C98.94 73.786 99.3046 74.3636 99.565 75.0597C99.8254 75.7509 99.9556 76.5606 99.9556 77.4886V78.3196H90.744V76.4446H97.1076C97.1076 76.009 97.0129 75.6231 96.8235 75.2869C96.6341 74.9508 96.3713 74.688 96.0352 74.4986C95.7037 74.3045 95.3178 74.2074 94.8775 74.2074C94.4182 74.2074 94.011 74.3139 93.6559 74.527C93.3055 74.7353 93.0309 75.017 92.832 75.3722C92.6332 75.7225 92.5314 76.1132 92.5266 76.544V78.3267C92.5266 78.8665 92.6261 79.3329 92.8249 79.7259C93.0285 80.1188 93.315 80.4219 93.6843 80.6349C94.0536 80.848 94.4916 80.9545 94.9982 80.9545C95.3344 80.9545 95.6422 80.9072 95.9215 80.8125C96.2009 80.7178 96.44 80.5758 96.6388 80.3864C96.8377 80.197 96.9892 79.965 97.0934 79.6903L99.8917 79.875C99.7496 80.5473 99.4585 81.1345 99.0181 81.6364C98.5825 82.1335 98.0191 82.5218 97.3278 82.8011C96.6412 83.0758 95.8481 83.2131 94.9485 83.2131ZM104.956 76.6932V83H101.93V72.0909H104.814V74.0156H104.941C105.183 73.3812 105.588 72.8793 106.156 72.5099C106.724 72.1359 107.413 71.9489 108.223 71.9489C108.98 71.9489 109.641 72.1146 110.204 72.446C110.768 72.7775 111.206 73.2509 111.518 73.8665C111.831 74.4773 111.987 75.2064 111.987 76.054V83H108.961V76.5938C108.966 75.9261 108.796 75.4053 108.45 75.0312C108.104 74.6525 107.628 74.4631 107.022 74.4631C106.615 74.4631 106.255 74.5507 105.943 74.7259C105.635 74.901 105.394 75.1567 105.218 75.4929C105.048 75.8243 104.96 76.2244 104.956 76.6932ZM120.174 72.0909V74.3636H113.604V72.0909H120.174ZM115.096 69.4773H118.121V79.6477C118.121 79.9271 118.164 80.1449 118.249 80.3011C118.335 80.4527 118.453 80.5592 118.604 80.6207C118.761 80.6823 118.941 80.7131 119.144 80.7131C119.286 80.7131 119.428 80.7012 119.57 80.6776C119.712 80.6491 119.821 80.6278 119.897 80.6136L120.373 82.8651C120.221 82.9124 120.008 82.9669 119.734 83.0284C119.459 83.0947 119.125 83.1349 118.732 83.1491C118.003 83.1776 117.364 83.0805 116.815 82.858C116.27 82.6354 115.846 82.2898 115.543 81.821C115.24 81.3523 115.091 80.7604 115.096 80.0455V69.4773ZM122.145 83V72.0909H125.17V83H122.145ZM123.665 70.6847C123.215 70.6847 122.829 70.5355 122.507 70.2372C122.19 69.9342 122.031 69.572 122.031 69.1506C122.031 68.7339 122.19 68.3764 122.507 68.0781C122.829 67.7751 123.215 67.6236 123.665 67.6236C124.115 67.6236 124.498 67.7751 124.815 68.0781C125.137 68.3764 125.298 68.7339 125.298 69.1506C125.298 69.572 125.137 69.9342 124.815 70.2372C124.498 70.5355 124.115 70.6847 123.665 70.6847ZM130.62 76.6932V83H127.594V72.0909H130.478V74.0156H130.605C130.847 73.3812 131.252 72.8793 131.82 72.5099C132.388 72.1359 133.077 71.9489 133.887 71.9489C134.644 71.9489 135.305 72.1146 135.868 72.446C136.432 72.7775 136.87 73.2509 137.182 73.8665C137.495 74.4773 137.651 75.2064 137.651 76.054V83H134.625V76.5938C134.63 75.9261 134.46 75.4053 134.114 75.0312C133.768 74.6525 133.292 74.4631 132.686 74.4631C132.279 74.4631 131.919 74.5507 131.607 74.7259C131.299 74.901 131.058 75.1567 130.882 75.4929C130.712 75.8243 130.624 76.2244 130.62 76.6932ZM144.95 87.3182C143.97 87.3182 143.13 87.1832 142.429 86.9134C141.733 86.6482 141.179 86.286 140.767 85.8267C140.355 85.3674 140.088 84.8513 139.964 84.2784L142.763 83.902C142.848 84.1198 142.983 84.3234 143.168 84.5128C143.352 84.7022 143.596 84.8537 143.899 84.9673C144.207 85.0857 144.581 85.1449 145.021 85.1449C145.679 85.1449 146.222 84.9839 146.648 84.6619C147.079 84.3447 147.294 83.812 147.294 83.0639V81.0682H147.166C147.034 81.3712 146.835 81.6577 146.57 81.9276C146.304 82.1974 145.964 82.4176 145.547 82.5881C145.13 82.7585 144.633 82.8438 144.055 82.8438C143.236 82.8438 142.491 82.6544 141.818 82.2756C141.151 81.892 140.618 81.3073 140.22 80.5213C139.827 79.7306 139.631 78.7315 139.631 77.5241C139.631 76.2884 139.832 75.2562 140.234 74.4276C140.637 73.599 141.172 72.9787 141.839 72.5668C142.512 72.1548 143.248 71.9489 144.048 71.9489C144.659 71.9489 145.17 72.053 145.582 72.2614C145.994 72.465 146.326 72.7206 146.577 73.0284C146.832 73.3314 147.029 73.6297 147.166 73.9233H147.28V72.0909H150.284V83.1065C150.284 84.0346 150.057 84.8111 149.602 85.4361C149.148 86.0611 148.518 86.5298 147.713 86.8423C146.913 87.1596 145.992 87.3182 144.95 87.3182ZM145.014 80.571C145.502 80.571 145.914 80.4503 146.25 80.2088C146.591 79.9626 146.851 79.6122 147.031 79.1577C147.216 78.6984 147.308 78.1491 147.308 77.5099C147.308 76.8707 147.218 76.3168 147.038 75.848C146.858 75.3745 146.598 75.0076 146.257 74.7472C145.916 74.4867 145.502 74.3565 145.014 74.3565C144.517 74.3565 144.098 74.4915 143.757 74.7614C143.416 75.0265 143.158 75.3958 142.983 75.8693C142.808 76.3428 142.72 76.8897 142.72 77.5099C142.72 78.1397 142.808 78.6842 142.983 79.1435C143.163 79.598 143.421 79.9508 143.757 80.2017C144.098 80.4479 144.517 80.571 145.014 80.571ZM170.211 73.5469H167.1C167.044 73.1444 166.928 72.7869 166.752 72.4744C166.577 72.1572 166.352 71.8873 166.078 71.6648C165.803 71.4422 165.486 71.2718 165.126 71.1534C164.771 71.035 164.385 70.9759 163.968 70.9759C163.216 70.9759 162.56 71.1629 162.001 71.5369C161.442 71.9062 161.009 72.446 160.701 73.1562C160.394 73.8617 160.24 74.7187 160.24 75.7273C160.24 76.7642 160.394 77.6354 160.701 78.3409C161.014 79.0464 161.449 79.5791 162.008 79.9389C162.567 80.2988 163.213 80.4787 163.947 80.4787C164.359 80.4787 164.74 80.4242 165.091 80.3153C165.446 80.2064 165.761 80.0478 166.035 79.8395C166.31 79.6264 166.537 79.3684 166.717 79.0653C166.902 78.7623 167.029 78.4167 167.1 78.0284L170.211 78.0426C170.131 78.7102 169.93 79.3542 169.608 79.9744C169.29 80.59 168.862 81.1416 168.322 81.6293C167.787 82.1122 167.148 82.4957 166.404 82.7798C165.666 83.0592 164.83 83.1989 163.897 83.1989C162.6 83.1989 161.44 82.9053 160.417 82.3182C159.399 81.7311 158.594 80.8812 158.002 79.7685C157.415 78.6558 157.122 77.3087 157.122 75.7273C157.122 74.1411 157.42 72.7917 158.017 71.679C158.613 70.5663 159.423 69.7187 160.446 69.1364C161.468 68.5492 162.619 68.2557 163.897 68.2557C164.74 68.2557 165.521 68.3741 166.241 68.6108C166.966 68.8475 167.607 69.1932 168.166 69.6477C168.725 70.0975 169.179 70.6491 169.529 71.3026C169.885 71.956 170.112 72.7041 170.211 73.5469ZM179.355 78.3551V72.0909H182.381V83H179.476V81.0185H179.363C179.116 81.6577 178.707 82.1714 178.134 82.5597C177.566 82.9479 176.872 83.142 176.053 83.142C175.324 83.142 174.682 82.9763 174.128 82.6449C173.574 82.3134 173.141 81.8423 172.828 81.2315C172.521 80.6207 172.364 79.8892 172.36 79.0369V72.0909H175.385V78.4972C175.39 79.1411 175.563 79.6501 175.904 80.0241C176.245 80.3982 176.702 80.5852 177.275 80.5852C177.639 80.5852 177.98 80.5024 178.297 80.3366C178.614 80.1662 178.87 79.9152 179.064 79.5838C179.263 79.2524 179.36 78.8428 179.355 78.3551ZM193.878 75.2017L191.108 75.3722C191.061 75.1354 190.959 74.9223 190.803 74.733C190.646 74.5388 190.44 74.3849 190.185 74.2713C189.934 74.1529 189.633 74.0938 189.283 74.0938C188.814 74.0938 188.419 74.1932 188.097 74.392C187.775 74.5862 187.614 74.8466 187.614 75.1733C187.614 75.4337 187.718 75.6539 187.926 75.8338C188.134 76.0137 188.492 76.1581 188.999 76.267L190.973 76.6648C192.034 76.8826 192.824 77.233 193.345 77.7159C193.866 78.1989 194.126 78.8333 194.126 79.6193C194.126 80.3343 193.916 80.9616 193.494 81.5014C193.078 82.0412 192.505 82.4626 191.776 82.7656C191.051 83.0639 190.215 83.2131 189.268 83.2131C187.824 83.2131 186.674 82.9124 185.817 82.3111C184.964 81.705 184.465 80.8812 184.318 79.8395L187.294 79.6832C187.384 80.1236 187.602 80.4598 187.947 80.6918C188.293 80.919 188.736 81.0327 189.276 81.0327C189.806 81.0327 190.232 80.9309 190.554 80.7273C190.881 80.5189 191.046 80.2514 191.051 79.9247C191.046 79.6501 190.93 79.4252 190.703 79.25C190.476 79.0701 190.125 78.9328 189.652 78.8381L187.763 78.4616C186.697 78.2486 185.904 77.8793 185.384 77.3537C184.867 76.8281 184.609 76.1581 184.609 75.3438C184.609 74.643 184.799 74.0393 185.178 73.5327C185.561 73.026 186.098 72.6354 186.79 72.3608C187.486 72.0862 188.3 71.9489 189.233 71.9489C190.611 71.9489 191.695 72.2401 192.486 72.8224C193.281 73.4048 193.745 74.1979 193.878 75.2017ZM201.834 72.0909V74.3636H195.265V72.0909H201.834ZM196.756 69.4773H199.782V79.6477C199.782 79.9271 199.824 80.1449 199.909 80.3011C199.995 80.4527 200.113 80.5592 200.265 80.6207C200.421 80.6823 200.601 80.7131 200.804 80.7131C200.946 80.7131 201.088 80.7012 201.23 80.6776C201.373 80.6491 201.481 80.6278 201.557 80.6136L202.033 82.8651C201.882 82.9124 201.668 82.9669 201.394 83.0284C201.119 83.0947 200.785 83.1349 200.392 83.1491C199.663 83.1776 199.024 83.0805 198.475 82.858C197.93 82.6354 197.507 82.2898 197.203 81.821C196.9 81.3523 196.751 80.7604 196.756 80.0455V69.4773ZM208.617 83.2131C207.514 83.2131 206.56 82.9787 205.755 82.5099C204.954 82.0365 204.337 81.3783 203.901 80.5355C203.465 79.688 203.248 78.7055 203.248 77.5881C203.248 76.4612 203.465 75.4763 203.901 74.6335C204.337 73.786 204.954 73.1278 205.755 72.6591C206.56 72.1856 207.514 71.9489 208.617 71.9489C209.72 71.9489 210.672 72.1856 211.472 72.6591C212.277 73.1278 212.897 73.786 213.333 74.6335C213.768 75.4763 213.986 76.4612 213.986 77.5881C213.986 78.7055 213.768 79.688 213.333 80.5355C212.897 81.3783 212.277 82.0365 211.472 82.5099C210.672 82.9787 209.72 83.2131 208.617 83.2131ZM208.631 80.8693C209.133 80.8693 209.552 80.7273 209.888 80.4432C210.224 80.1544 210.478 79.7614 210.648 79.2642C210.823 78.767 210.911 78.2012 210.911 77.5668C210.911 76.9323 210.823 76.3665 210.648 75.8693C210.478 75.3722 210.224 74.9792 209.888 74.6903C209.552 74.4015 209.133 74.2571 208.631 74.2571C208.124 74.2571 207.698 74.4015 207.353 74.6903C207.012 74.9792 206.754 75.3722 206.578 75.8693C206.408 76.3665 206.323 76.9323 206.323 77.5668C206.323 78.2012 206.408 78.767 206.578 79.2642C206.754 79.7614 207.012 80.1544 207.353 80.4432C207.698 80.7273 208.124 80.8693 208.631 80.8693ZM215.953 83V72.0909H218.837V74.0156H218.965C219.192 73.3764 219.571 72.8722 220.101 72.5028C220.632 72.1335 221.266 71.9489 222.005 71.9489C222.753 71.9489 223.39 72.1359 223.915 72.5099C224.441 72.8793 224.791 73.3812 224.966 74.0156H225.08C225.302 73.3906 225.705 72.8911 226.287 72.517C226.874 72.1383 227.568 71.9489 228.368 71.9489C229.386 71.9489 230.212 72.2732 230.847 72.9219C231.486 73.5658 231.806 74.4796 231.806 75.6634V83H228.787V76.2599C228.787 75.6539 228.626 75.1993 228.304 74.8963C227.982 74.5933 227.58 74.4418 227.097 74.4418C226.548 74.4418 226.119 74.617 225.811 74.9673C225.504 75.313 225.35 75.7699 225.35 76.3381V83H222.417V76.196C222.417 75.661 222.263 75.2348 221.955 74.9176C221.652 74.6004 221.252 74.4418 220.755 74.4418C220.418 74.4418 220.115 74.527 219.846 74.6974C219.58 74.8632 219.37 75.0975 219.213 75.4006C219.057 75.6989 218.979 76.0492 218.979 76.4517V83H215.953ZM239.167 83.2131C238.045 83.2131 237.079 82.9858 236.27 82.5312C235.465 82.072 234.844 81.4233 234.409 80.5852C233.973 79.7424 233.755 78.7457 233.755 77.5952C233.755 76.473 233.973 75.4882 234.409 74.6406C234.844 73.7931 235.458 73.1326 236.248 72.6591C237.044 72.1856 237.976 71.9489 239.047 71.9489C239.766 71.9489 240.436 72.0649 241.056 72.2969C241.681 72.5241 242.226 72.8674 242.69 73.3267C243.159 73.786 243.523 74.3636 243.784 75.0597C244.044 75.7509 244.174 76.5606 244.174 77.4886V78.3196H234.963V76.4446H241.326C241.326 76.009 241.232 75.6231 241.042 75.2869C240.853 74.9508 240.59 74.688 240.254 74.4986C239.922 74.3045 239.537 74.2074 239.096 74.2074C238.637 74.2074 238.23 74.3139 237.875 74.527C237.524 74.7353 237.25 75.017 237.051 75.3722C236.852 75.7225 236.75 76.1132 236.745 76.544V78.3267C236.745 78.8665 236.845 79.3329 237.044 79.7259C237.247 80.1188 237.534 80.4219 237.903 80.6349C238.272 80.848 238.71 80.9545 239.217 80.9545C239.553 80.9545 239.861 80.9072 240.14 80.8125C240.42 80.7178 240.659 80.5758 240.858 80.3864C241.056 80.197 241.208 79.965 241.312 79.6903L244.11 79.875C243.968 80.5473 243.677 81.1345 243.237 81.6364C242.801 82.1335 242.238 82.5218 241.547 82.8011C240.86 83.0758 240.067 83.2131 239.167 83.2131ZM246.149 83V72.0909H249.082V73.9943H249.196C249.395 73.3172 249.728 72.8059 250.197 72.4602C250.666 72.1098 251.206 71.9347 251.816 71.9347C251.968 71.9347 252.131 71.9441 252.306 71.9631C252.482 71.982 252.636 72.008 252.768 72.0412V74.7259C252.626 74.6832 252.43 74.6454 252.179 74.6122C251.928 74.5791 251.698 74.5625 251.49 74.5625C251.045 74.5625 250.647 74.6596 250.297 74.8537C249.951 75.0431 249.676 75.3082 249.473 75.6491C249.274 75.9901 249.174 76.383 249.174 76.8281V83H246.149ZM36.2642 107V92.4545H39.3395V104.464H45.5753V107H36.2642ZM52.484 107.213C51.3808 107.213 50.4267 106.979 49.6218 106.51C48.8216 106.036 48.2037 105.378 47.7681 104.536C47.3325 103.688 47.1147 102.705 47.1147 101.588C47.1147 100.461 47.3325 99.4763 47.7681 98.6335C48.2037 97.786 48.8216 97.1278 49.6218 96.6591C50.4267 96.1856 51.3808 95.9489 52.484 95.9489C53.5872 95.9489 54.5389 96.1856 55.3391 96.6591C56.1441 97.1278 56.7643 97.786 57.1999 98.6335C57.6355 99.4763 57.8533 100.461 57.8533 101.588C57.8533 102.705 57.6355 103.688 57.1999 104.536C56.7643 105.378 56.1441 106.036 55.3391 106.51C54.5389 106.979 53.5872 107.213 52.484 107.213ZM52.4982 104.869C53.0001 104.869 53.4192 104.727 53.7553 104.443C54.0915 104.154 54.3448 103.761 54.5153 103.264C54.6905 102.767 54.7781 102.201 54.7781 101.567C54.7781 100.932 54.6905 100.366 54.5153 99.8693C54.3448 99.3722 54.0915 98.9792 53.7553 98.6903C53.4192 98.4015 53.0001 98.2571 52.4982 98.2571C51.9916 98.2571 51.5655 98.4015 51.2198 98.6903C50.8789 98.9792 50.6209 99.3722 50.4457 99.8693C50.2752 100.366 50.19 100.932 50.19 101.567C50.19 102.201 50.2752 102.767 50.4457 103.264C50.6209 103.761 50.8789 104.154 51.2198 104.443C51.5655 104.727 51.9916 104.869 52.4982 104.869ZM61.337 111.091C60.9535 111.091 60.5936 111.06 60.2575 110.999C59.926 110.942 59.6514 110.868 59.4336 110.778L60.1154 108.52C60.4705 108.629 60.7901 108.688 61.0742 108.697C61.363 108.707 61.6116 108.641 61.82 108.499C62.033 108.357 62.2058 108.115 62.3384 107.774L62.516 107.312L58.6026 96.0909H61.7844L64.043 104.102H64.1566L66.4364 96.0909H69.6396L65.3995 108.179C65.1959 108.766 64.9189 109.277 64.5685 109.713C64.2229 110.153 63.7849 110.492 63.2546 110.729C62.7243 110.97 62.0851 111.091 61.337 111.091ZM74.0057 107.206C73.3097 107.206 72.6894 107.085 72.1449 106.844C71.6004 106.598 71.1695 106.235 70.8523 105.757C70.5398 105.274 70.3835 104.673 70.3835 103.953C70.3835 103.347 70.4948 102.838 70.7173 102.426C70.9399 102.014 71.2429 101.683 71.6264 101.432C72.0099 101.181 72.4455 100.991 72.9332 100.864C73.4257 100.736 73.9418 100.646 74.4815 100.594C75.116 100.527 75.6274 100.466 76.0156 100.409C76.4039 100.348 76.6856 100.258 76.8608 100.139C77.036 100.021 77.1236 99.8456 77.1236 99.6136V99.571C77.1236 99.1212 76.9815 98.7732 76.6974 98.527C76.4181 98.2808 76.0204 98.1577 75.5043 98.1577C74.9598 98.1577 74.5265 98.2784 74.2045 98.5199C73.8826 98.7566 73.6695 99.0549 73.5653 99.4148L70.767 99.1875C70.9091 98.5246 71.1884 97.9517 71.6051 97.4688C72.0218 96.9811 72.5592 96.607 73.2173 96.3466C73.8802 96.0814 74.6473 95.9489 75.5185 95.9489C76.1245 95.9489 76.7045 96.0199 77.2585 96.1619C77.8172 96.304 78.312 96.5241 78.7429 96.8224C79.1785 97.1207 79.5218 97.5043 79.7727 97.973C80.0237 98.437 80.1491 98.9934 80.1491 99.642V107H77.2798V105.487H77.1946C77.0194 105.828 76.785 106.129 76.4915 106.389C76.1979 106.645 75.8452 106.846 75.4332 106.993C75.0213 107.135 74.5455 107.206 74.0057 107.206ZM74.8722 105.118C75.3172 105.118 75.7102 105.03 76.0511 104.855C76.392 104.675 76.6596 104.434 76.8537 104.131C77.0478 103.828 77.1449 103.484 77.1449 103.101V101.943C77.0502 102.005 76.92 102.062 76.7543 102.114C76.5933 102.161 76.411 102.206 76.2074 102.249C76.0038 102.286 75.8002 102.322 75.5966 102.355C75.393 102.384 75.2083 102.41 75.0426 102.433C74.6875 102.485 74.3774 102.568 74.1122 102.682C73.8471 102.795 73.6411 102.949 73.4943 103.143C73.3475 103.333 73.2741 103.57 73.2741 103.854C73.2741 104.266 73.4233 104.58 73.7216 104.798C74.0246 105.011 74.4081 105.118 74.8722 105.118ZM85.522 92.4545V107H82.4964V92.4545H85.522ZM93.7482 96.0909V98.3636H87.1786V96.0909H93.7482ZM88.6701 93.4773H91.6957V103.648C91.6957 103.927 91.7383 104.145 91.8235 104.301C91.9087 104.453 92.0271 104.559 92.1786 104.621C92.3349 104.682 92.5148 104.713 92.7184 104.713C92.8604 104.713 93.0025 104.701 93.1445 104.678C93.2866 104.649 93.3955 104.628 93.4712 104.614L93.9471 106.865C93.7956 106.912 93.5825 106.967 93.3079 107.028C93.0333 107.095 92.6995 107.135 92.3065 107.149C91.5773 107.178 90.9381 107.08 90.3888 106.858C89.8443 106.635 89.4206 106.29 89.1175 105.821C88.8145 105.352 88.6654 104.76 88.6701 104.045V93.4773ZM97.587 111.091C97.2035 111.091 96.8436 111.06 96.5075 110.999C96.176 110.942 95.9014 110.868 95.6836 110.778L96.3654 108.52C96.7205 108.629 97.0401 108.688 97.3242 108.697C97.613 108.707 97.8616 108.641 98.07 108.499C98.283 108.357 98.4558 108.115 98.5884 107.774L98.766 107.312L94.8526 96.0909H98.0344L100.293 104.102H100.407L102.686 96.0909H105.89L101.65 108.179C101.446 108.766 101.169 109.277 100.819 109.713C100.473 110.153 100.035 110.492 99.5046 110.729C98.9743 110.97 98.3351 111.091 97.587 111.091ZM109.206 107.185C108.738 107.185 108.335 107.019 107.999 106.688C107.667 106.351 107.502 105.949 107.502 105.48C107.502 105.016 107.667 104.618 107.999 104.287C108.335 103.955 108.738 103.79 109.206 103.79C109.661 103.79 110.059 103.955 110.4 104.287C110.74 104.618 110.911 105.016 110.911 105.48C110.911 105.793 110.83 106.079 110.669 106.339C110.513 106.595 110.307 106.801 110.051 106.957C109.796 107.109 109.514 107.185 109.206 107.185ZM109.206 99.5426C108.738 99.5426 108.335 99.3769 107.999 99.0455C107.667 98.714 107.502 98.3116 107.502 97.8381C107.502 97.3741 107.667 96.9787 107.999 96.652C108.335 96.3205 108.738 96.1548 109.206 96.1548C109.661 96.1548 110.059 96.3205 110.4 96.652C110.74 96.9787 110.911 97.3741 110.911 97.8381C110.911 98.1553 110.83 98.4441 110.669 98.7045C110.513 98.9602 110.307 99.1638 110.051 99.3153C109.796 99.4669 109.514 99.5426 109.206 99.5426ZM120.588 107H117.292L122.314 92.4545H126.277L131.291 107H127.995L124.352 95.7784H124.238L120.588 107ZM120.382 101.283H128.166V103.683H120.382V101.283ZM140.945 107L136.783 92.4545H140.142L142.55 102.561H142.67L145.327 92.4545H148.203L150.852 102.582H150.98L153.388 92.4545H156.747L152.585 107H149.588L146.818 97.4901H146.705L143.942 107H140.945ZM162.136 107.213C161.014 107.213 160.048 106.986 159.238 106.531C158.433 106.072 157.813 105.423 157.377 104.585C156.942 103.742 156.724 102.746 156.724 101.595C156.724 100.473 156.942 99.4882 157.377 98.6406C157.813 97.7931 158.426 97.1326 159.217 96.6591C160.012 96.1856 160.945 95.9489 162.015 95.9489C162.735 95.9489 163.405 96.0649 164.025 96.2969C164.65 96.5241 165.195 96.8674 165.659 97.3267C166.127 97.786 166.492 98.3636 166.752 99.0597C167.013 99.7509 167.143 100.561 167.143 101.489V102.32H157.931V100.445H164.295C164.295 100.009 164.2 99.6231 164.011 99.2869C163.822 98.9508 163.559 98.688 163.223 98.4986C162.891 98.3045 162.505 98.2074 162.065 98.2074C161.606 98.2074 161.199 98.3139 160.843 98.527C160.493 98.7353 160.218 99.017 160.02 99.3722C159.821 99.7225 159.719 100.113 159.714 100.544V102.327C159.714 102.866 159.814 103.333 160.012 103.726C160.216 104.119 160.502 104.422 160.872 104.635C161.241 104.848 161.679 104.955 162.186 104.955C162.522 104.955 162.83 104.907 163.109 104.812C163.388 104.718 163.627 104.576 163.826 104.386C164.025 104.197 164.177 103.965 164.281 103.69L167.079 103.875C166.937 104.547 166.646 105.134 166.206 105.636C165.77 106.134 165.207 106.522 164.515 106.801C163.829 107.076 163.036 107.213 162.136 107.213ZM169.174 107V92.4545H172.2V97.9233H172.292C172.425 97.6297 172.617 97.3314 172.868 97.0284C173.123 96.7206 173.455 96.465 173.862 96.2614C174.274 96.053 174.785 95.9489 175.396 95.9489C176.191 95.9489 176.925 96.1572 177.598 96.5739C178.27 96.9858 178.807 97.6084 179.21 98.4418C179.612 99.2704 179.814 100.31 179.814 101.56C179.814 102.777 179.617 103.804 179.224 104.642C178.836 105.475 178.306 106.107 177.633 106.538C176.966 106.964 176.217 107.178 175.389 107.178C174.802 107.178 174.302 107.08 173.89 106.886C173.483 106.692 173.149 106.448 172.889 106.155C172.628 105.857 172.43 105.556 172.292 105.253H172.157V107H169.174ZM172.136 101.545C172.136 102.194 172.226 102.76 172.406 103.243C172.586 103.726 172.846 104.102 173.187 104.372C173.528 104.637 173.942 104.77 174.43 104.77C174.922 104.77 175.339 104.635 175.68 104.365C176.021 104.09 176.279 103.712 176.454 103.229C176.634 102.741 176.724 102.18 176.724 101.545C176.724 100.916 176.636 100.362 176.461 99.8835C176.286 99.4053 176.028 99.0312 175.687 98.7614C175.346 98.4915 174.927 98.3565 174.43 98.3565C173.938 98.3565 173.521 98.4867 173.18 98.7472C172.844 99.0076 172.586 99.3769 172.406 99.8551C172.226 100.333 172.136 100.897 172.136 101.545ZM187.18 107.199C186.12 107.199 185.175 107.017 184.347 106.652C183.523 106.283 182.872 105.776 182.393 105.132C181.92 104.483 181.676 103.735 181.662 102.888H184.759C184.777 103.243 184.893 103.555 185.107 103.825C185.324 104.09 185.613 104.296 185.973 104.443C186.333 104.59 186.738 104.663 187.188 104.663C187.656 104.663 188.071 104.58 188.43 104.415C188.79 104.249 189.072 104.019 189.276 103.726C189.479 103.432 189.581 103.094 189.581 102.71C189.581 102.322 189.472 101.979 189.254 101.68C189.041 101.377 188.733 101.141 188.331 100.97C187.933 100.8 187.46 100.714 186.911 100.714H185.554V98.456H186.911C187.375 98.456 187.784 98.3755 188.139 98.2145C188.499 98.0535 188.778 97.831 188.977 97.5469C189.176 97.258 189.276 96.9219 189.276 96.5384C189.276 96.1738 189.188 95.8542 189.013 95.5795C188.842 95.3002 188.601 95.0824 188.288 94.9261C187.981 94.7699 187.621 94.6918 187.209 94.6918C186.792 94.6918 186.411 94.7675 186.065 94.919C185.72 95.0658 185.443 95.2765 185.234 95.5511C185.026 95.8258 184.915 96.1477 184.901 96.517H181.953C181.967 95.679 182.206 94.9403 182.67 94.3011C183.134 93.6619 183.759 93.1624 184.545 92.8026C185.336 92.438 186.229 92.2557 187.223 92.2557C188.227 92.2557 189.105 92.438 189.858 92.8026C190.611 93.1671 191.196 93.6596 191.612 94.2798C192.034 94.8954 192.242 95.5866 192.237 96.3537C192.242 97.1681 191.989 97.8475 191.477 98.392C190.971 98.9366 190.31 99.2822 189.496 99.429V99.5426C190.566 99.6799 191.38 100.052 191.939 100.658C192.502 101.259 192.782 102.012 192.777 102.916C192.782 103.745 192.543 104.481 192.06 105.125C191.581 105.769 190.921 106.276 190.078 106.645C189.235 107.014 188.269 107.199 187.18 107.199ZM199.702 107V92.4545H205.44C206.539 92.4545 207.476 92.651 208.253 93.044C209.034 93.4323 209.628 93.9839 210.036 94.6989C210.447 95.4091 210.653 96.2448 210.653 97.206C210.653 98.1719 210.445 99.0028 210.028 99.6989C209.612 100.39 209.008 100.92 208.217 101.29C207.431 101.659 206.48 101.844 205.362 101.844H201.52V99.3722H204.865C205.452 99.3722 205.94 99.2917 206.328 99.1307C206.716 98.9697 207.005 98.7282 207.195 98.4062C207.389 98.0843 207.486 97.6842 207.486 97.206C207.486 96.723 207.389 96.3158 207.195 95.9844C207.005 95.6529 206.714 95.402 206.321 95.2315C205.933 95.0563 205.443 94.9688 204.851 94.9688H202.777V107H199.702ZM207.557 100.381L211.172 107H207.777L204.24 100.381H207.557ZM217.566 107.213C216.444 107.213 215.478 106.986 214.668 106.531C213.863 106.072 213.243 105.423 212.807 104.585C212.372 103.742 212.154 102.746 212.154 101.595C212.154 100.473 212.372 99.4882 212.807 98.6406C213.243 97.7931 213.856 97.1326 214.647 96.6591C215.442 96.1856 216.375 95.9489 217.445 95.9489C218.165 95.9489 218.835 96.0649 219.455 96.2969C220.08 96.5241 220.624 96.8674 221.088 97.3267C221.557 97.786 221.922 98.3636 222.182 99.0597C222.443 99.7509 222.573 100.561 222.573 101.489V102.32H213.361V100.445H219.725C219.725 100.009 219.63 99.6231 219.441 99.2869C219.251 98.9508 218.989 98.688 218.652 98.4986C218.321 98.3045 217.935 98.2074 217.495 98.2074C217.035 98.2074 216.628 98.3139 216.273 98.527C215.923 98.7353 215.648 99.017 215.449 99.3722C215.25 99.7225 215.149 100.113 215.144 100.544V102.327C215.144 102.866 215.243 103.333 215.442 103.726C215.646 104.119 215.932 104.422 216.301 104.635C216.671 104.848 217.109 104.955 217.615 104.955C217.952 104.955 218.259 104.907 218.539 104.812C218.818 104.718 219.057 104.576 219.256 104.386C219.455 104.197 219.606 103.965 219.711 103.69L222.509 103.875C222.367 104.547 222.076 105.134 221.635 105.636C221.2 106.134 220.636 106.522 219.945 106.801C219.258 107.076 218.465 107.213 217.566 107.213ZM234.425 96.0909L230.611 107H227.202L223.388 96.0909H226.584L228.849 103.896H228.963L231.222 96.0909H234.425ZM240.55 107.213C239.447 107.213 238.493 106.979 237.688 106.51C236.888 106.036 236.27 105.378 235.835 104.536C235.399 103.688 235.181 102.705 235.181 101.588C235.181 100.461 235.399 99.4763 235.835 98.6335C236.27 97.786 236.888 97.1278 237.688 96.6591C238.493 96.1856 239.447 95.9489 240.55 95.9489C241.654 95.9489 242.605 96.1856 243.406 96.6591C244.21 97.1278 244.831 97.786 245.266 98.6335C245.702 99.4763 245.92 100.461 245.92 101.588C245.92 102.705 245.702 103.688 245.266 104.536C244.831 105.378 244.21 106.036 243.406 106.51C242.605 106.979 241.654 107.213 240.55 107.213ZM240.565 104.869C241.067 104.869 241.486 104.727 241.822 104.443C242.158 104.154 242.411 103.761 242.582 103.264C242.757 102.767 242.844 102.201 242.844 101.567C242.844 100.932 242.757 100.366 242.582 99.8693C242.411 99.3722 242.158 98.9792 241.822 98.6903C241.486 98.4015 241.067 98.2571 240.565 98.2571C240.058 98.2571 239.632 98.4015 239.286 98.6903C238.945 98.9792 238.687 99.3722 238.512 99.8693C238.342 100.366 238.256 100.932 238.256 101.567C238.256 102.201 238.342 102.767 238.512 103.264C238.687 103.761 238.945 104.154 239.286 104.443C239.632 104.727 240.058 104.869 240.565 104.869ZM250.913 92.4545V107H247.887V92.4545H250.913ZM260.332 102.355V96.0909H263.358V107H260.453V105.018H260.339C260.093 105.658 259.683 106.171 259.11 106.56C258.542 106.948 257.849 107.142 257.029 107.142C256.3 107.142 255.659 106.976 255.105 106.645C254.551 106.313 254.118 105.842 253.805 105.232C253.497 104.621 253.341 103.889 253.336 103.037V96.0909H256.362V102.497C256.367 103.141 256.539 103.65 256.88 104.024C257.221 104.398 257.678 104.585 258.251 104.585C258.616 104.585 258.957 104.502 259.274 104.337C259.591 104.166 259.847 103.915 260.041 103.584C260.24 103.252 260.337 102.843 260.332 102.355ZM271.58 96.0909V98.3636H265.011V96.0909H271.58ZM266.502 93.4773H269.528V103.648C269.528 103.927 269.57 104.145 269.656 104.301C269.741 104.453 269.859 104.559 270.011 104.621C270.167 104.682 270.347 104.713 270.55 104.713C270.692 104.713 270.835 104.701 270.977 104.678C271.119 104.649 271.228 104.628 271.303 104.614L271.779 106.865C271.628 106.912 271.415 106.967 271.14 107.028C270.865 107.095 270.531 107.135 270.138 107.149C269.409 107.178 268.77 107.08 268.221 106.858C267.676 106.635 267.253 106.29 266.95 105.821C266.647 105.352 266.497 104.76 266.502 104.045V93.4773ZM273.551 107V96.0909H276.577V107H273.551ZM275.071 94.6847C274.621 94.6847 274.235 94.5355 273.913 94.2372C273.596 93.9342 273.438 93.572 273.438 93.1506C273.438 92.7339 273.596 92.3764 273.913 92.0781C274.235 91.7751 274.621 91.6236 275.071 91.6236C275.521 91.6236 275.904 91.7751 276.222 92.0781C276.544 92.3764 276.705 92.7339 276.705 93.1506C276.705 93.572 276.544 93.9342 276.222 94.2372C275.904 94.5355 275.521 94.6847 275.071 94.6847ZM283.929 107.213C282.826 107.213 281.872 106.979 281.067 106.51C280.267 106.036 279.649 105.378 279.213 104.536C278.778 103.688 278.56 102.705 278.56 101.588C278.56 100.461 278.778 99.4763 279.213 98.6335C279.649 97.786 280.267 97.1278 281.067 96.6591C281.872 96.1856 282.826 95.9489 283.929 95.9489C285.033 95.9489 285.984 96.1856 286.784 96.6591C287.589 97.1278 288.21 97.786 288.645 98.6335C289.081 99.4763 289.299 100.461 289.299 101.588C289.299 102.705 289.081 103.688 288.645 104.536C288.21 105.378 287.589 106.036 286.784 106.51C285.984 106.979 285.033 107.213 283.929 107.213ZM283.944 104.869C284.445 104.869 284.864 104.727 285.201 104.443C285.537 104.154 285.79 103.761 285.961 103.264C286.136 102.767 286.223 102.201 286.223 101.567C286.223 100.932 286.136 100.366 285.961 99.8693C285.79 99.3722 285.537 98.9792 285.201 98.6903C284.864 98.4015 284.445 98.2571 283.944 98.2571C283.437 98.2571 283.011 98.4015 282.665 98.6903C282.324 98.9792 282.066 99.3722 281.891 99.8693C281.721 100.366 281.635 100.932 281.635 101.567C281.635 102.201 281.721 102.767 281.891 103.264C282.066 103.761 282.324 104.154 282.665 104.443C283.011 104.727 283.437 104.869 283.944 104.869ZM294.292 100.693V107H291.266V96.0909H294.15V98.0156H294.277C294.519 97.3812 294.924 96.8793 295.492 96.5099C296.06 96.1359 296.749 95.9489 297.559 95.9489C298.316 95.9489 298.977 96.1146 299.54 96.446C300.104 96.7775 300.542 97.2509 300.854 97.8665C301.167 98.4773 301.323 99.2064 301.323 100.054V107H298.297V100.594C298.302 99.9261 298.132 99.4053 297.786 99.0312C297.44 98.6525 296.964 98.4631 296.358 98.4631C295.951 98.4631 295.591 98.5507 295.279 98.7259C294.971 98.901 294.73 99.1567 294.554 99.4929C294.384 99.8243 294.296 100.224 294.292 100.693Z" fill="white"/>
<path d="M45.8462 164.094L35 153.156V147.323C35 145.135 37.6432 144.041 39.1927 145.591L52.5909 158.99L47.578 164.003C47.1222 164.55 46.3019 164.55 45.8462 164.094Z" fill="white"/>
<path d="M53.6847 157.805L58.4242 153.156V147.323C58.4242 145.135 55.781 144.041 54.2315 145.591L47.7603 151.971L53.6847 157.805Z" fill="white"/>
<path d="M35 162.454V155.617L42.2004 162.818C42.9296 163.639 42.3827 164.915 41.3801 164.915H37.4609C36.0937 164.915 35 163.821 35 162.454Z" fill="white"/>
<path d="M58.4243 162.454V155.617L51.2239 162.818C50.4947 163.639 51.0416 164.915 52.1353 164.915H55.9634C57.3305 164.915 58.4243 163.821 58.4243 162.454Z" fill="white"/>
<path d="M137.062 155.546C139.237 155.964 142.082 157.052 141.998 160.231C141.998 161.737 141.412 162.908 140.325 163.745C139.237 164.581 137.815 165 136.058 165C133.047 165 130.955 163.828 129.868 161.486L133.214 159.645C133.632 160.9 134.636 161.569 136.142 161.569C137.481 161.569 138.233 161.151 138.233 160.314C138.233 159.478 137.062 159.06 135.556 158.641C133.381 158.056 130.621 157.135 130.621 154.04C130.621 152.617 131.206 151.446 132.21 150.609C133.298 149.773 134.636 149.354 136.226 149.354C138.652 149.354 140.66 150.442 141.831 152.534L138.568 154.291C138.066 153.287 137.313 152.785 136.226 152.785C135.222 152.785 134.553 153.287 134.553 154.04C134.385 154.709 135.556 155.127 137.062 155.546Z" fill="white"/>
<path d="M123.51 160.232L122.757 161.32L124.848 164.332H129.282L125.016 158.141L123.51 160.232Z" fill="white"/>
<path d="M125.016 155.965L129.366 149.773H124.932L122.757 152.869L123.51 153.873L125.016 155.965Z" fill="white"/>
<path d="M122.088 153.873L119.16 149.773H114.726L119.829 157.052L114.809 164.247H119.243L122.088 160.231L124.263 157.052L122.088 153.873Z" fill="white"/>
<path d="M89.8795 155.295V164.163H86.1149V155.546C86.1149 153.789 85.1947 152.785 83.6888 152.785C82.0157 152.785 81.0118 153.956 81.0118 156.048V164.163H77.3309V155.546C77.3309 153.789 76.4106 152.785 74.9048 152.785C73.2316 152.785 72.2277 153.956 72.2277 156.048V164.163H68.4631V149.773H72.1441V151.279C72.9807 149.94 74.3192 149.354 76.1596 149.354C77.9165 149.354 79.255 150.024 80.0916 151.446C81.0118 150.107 82.5176 149.354 84.3581 149.354C87.7881 149.354 89.8795 151.697 89.8795 155.295Z" fill="white"/>
<path d="M94.8989 148.434C96.1538 148.434 97.2413 147.43 97.2413 146.259C97.2413 145.004 96.2374 144 94.8989 144C93.644 144 92.6401 145.004 92.6401 146.259C92.6401 147.43 93.644 148.434 94.8989 148.434Z" fill="white"/>
<path d="M96.823 149.773H93.1421V164.164H96.823V149.773Z" fill="white"/>
<path d="M103.348 158.474C103.85 160.314 105.189 161.151 107.447 161.151C108.87 161.151 109.957 160.649 110.626 159.729L113.638 161.486C112.216 163.577 110.124 164.581 107.364 164.581C104.938 164.581 103.097 163.828 101.591 162.406C100.169 160.984 99.4163 159.143 99.4163 156.968C99.4163 154.793 100.169 153.036 101.508 151.53C102.93 150.024 104.77 149.354 106.945 149.354C109.037 149.354 110.794 150.107 112.132 151.53C113.471 153.036 114.224 154.793 114.224 156.968C114.224 157.47 114.14 157.972 114.056 158.474H103.348ZM110.626 155.546C110.208 153.621 108.786 152.617 107.029 152.617C105.021 152.617 103.683 153.705 103.265 155.546H110.626Z" fill="white"/>
<path d="M36.1186 40.8182H37.983L41.2244 48.733H41.3438L44.5852 40.8182H46.4496V51H44.9879V43.6321H44.8935L41.8906 50.9851H40.6776L37.6747 43.6271H37.5803V51H36.1186V40.8182ZM48.5637 51V43.3636H50.0502V51H48.5637ZM49.3145 42.1854C49.0559 42.1854 48.8339 42.0992 48.6483 41.9268C48.466 41.7512 48.3748 41.5424 48.3748 41.3004C48.3748 41.0552 48.466 40.8464 48.6483 40.674C48.8339 40.4983 49.0559 40.4105 49.3145 40.4105C49.573 40.4105 49.7934 40.4983 49.9757 40.674C50.1613 40.8464 50.2541 41.0552 50.2541 41.3004C50.2541 41.5424 50.1613 41.7512 49.9757 41.9268C49.7934 42.0992 49.573 42.1854 49.3145 42.1854ZM55.3413 51.1541C54.5889 51.1541 53.9409 50.9934 53.3974 50.6719C52.8571 50.3471 52.4395 49.8913 52.1445 49.3047C51.8529 48.7147 51.707 48.0237 51.707 47.2315C51.707 46.4493 51.8529 45.7599 52.1445 45.1634C52.4395 44.5668 52.8505 44.1011 53.3775 43.7663C53.9078 43.4316 54.5276 43.2642 55.2369 43.2642C55.6677 43.2642 56.0853 43.3355 56.4897 43.478C56.8941 43.6205 57.257 43.8442 57.5785 44.1491C57.9 44.4541 58.1535 44.8501 58.3391 45.3374C58.5247 45.8213 58.6175 46.4096 58.6175 47.1023V47.6293H52.5472V46.5156H57.1609C57.1609 46.1245 57.0813 45.7782 56.9222 45.4766C56.7631 45.1716 56.5394 44.9313 56.2511 44.7557C55.966 44.58 55.6313 44.4922 55.2468 44.4922C54.8292 44.4922 54.4646 44.5949 54.1531 44.8004C53.8448 45.0026 53.6062 45.2678 53.4371 45.5959C53.2714 45.9207 53.1886 46.2737 53.1886 46.6548V47.5249C53.1886 48.0353 53.2781 48.4695 53.457 48.8274C53.6393 49.1854 53.8929 49.4588 54.2177 49.6477C54.5425 49.8333 54.922 49.9261 55.3562 49.9261C55.6379 49.9261 55.8948 49.8864 56.1268 49.8068C56.3588 49.724 56.5593 49.6013 56.7283 49.4389C56.8974 49.2765 57.0266 49.076 57.1161 48.8374L58.5231 49.0909C58.4104 49.5052 58.2082 49.8681 57.9165 50.1797C57.6282 50.4879 57.2653 50.7282 56.8278 50.9006C56.3936 51.0696 55.8981 51.1541 55.3413 51.1541ZM61.2624 43.3636L62.9478 46.3366L64.6481 43.3636H66.2738L63.8924 47.1818L66.2937 51H64.668L62.9478 48.1463L61.2326 51H59.6019L61.9783 47.1818L59.6317 43.3636H61.2624ZM73.5224 45.228L72.1751 45.4666C72.1187 45.2943 72.0292 45.1302 71.9066 44.9744C71.7873 44.8187 71.6249 44.6911 71.4194 44.5916C71.2139 44.4922 70.957 44.4425 70.6488 44.4425C70.2279 44.4425 69.8765 44.5369 69.5948 44.7259C69.3131 44.9115 69.1722 45.1518 69.1722 45.4467C69.1722 45.7019 69.2667 45.9074 69.4556 46.0632C69.6445 46.219 69.9495 46.3466 70.3704 46.446L71.5835 46.7244C72.2861 46.8868 72.8098 47.1371 73.1545 47.4751C73.4992 47.8132 73.6715 48.2524 73.6715 48.7926C73.6715 49.25 73.5389 49.6577 73.2738 50.0156C73.012 50.3703 72.6457 50.6487 72.1751 50.8509C71.7077 51.053 71.1658 51.1541 70.5494 51.1541C69.6942 51.1541 68.9966 50.9718 68.4563 50.6072C67.9161 50.2393 67.5846 49.7173 67.462 49.0412L68.8988 48.8224C68.9883 49.197 69.1722 49.4804 69.4506 49.6726C69.729 49.8615 70.092 49.956 70.5394 49.956C71.0266 49.956 71.4161 49.8549 71.7077 49.6527C71.9994 49.4472 72.1452 49.197 72.1452 48.902C72.1452 48.6634 72.0558 48.4628 71.8768 48.3004C71.7011 48.138 71.431 48.0154 71.0664 47.9325L69.7738 47.6491C69.0612 47.4867 68.5342 47.2282 68.1928 46.8736C67.8548 46.5189 67.6857 46.0698 67.6857 45.5263C67.6857 45.0755 67.8117 44.6811 68.0636 44.343C68.3155 44.005 68.6635 43.7415 69.1076 43.5526C69.5517 43.3603 70.0605 43.2642 70.6339 43.2642C71.4592 43.2642 72.1088 43.4432 72.5827 43.8011C73.0567 44.1558 73.3699 44.6314 73.5224 45.228ZM87.3484 40.8182V51H85.9364L80.761 43.5327H80.6665V51H79.1303V40.8182H80.5522L85.7326 48.2955H85.8271V40.8182H87.3484ZM92.7612 51.1541C92.0088 51.1541 91.3609 50.9934 90.8173 50.6719C90.277 50.3471 89.8594 49.8913 89.5645 49.3047C89.2728 48.7147 89.127 48.0237 89.127 47.2315C89.127 46.4493 89.2728 45.7599 89.5645 45.1634C89.8594 44.5668 90.2704 44.1011 90.7974 43.7663C91.3277 43.4316 91.9475 43.2642 92.6568 43.2642C93.0877 43.2642 93.5053 43.3355 93.9096 43.478C94.314 43.6205 94.6769 43.8442 94.9984 44.1491C95.3199 44.4541 95.5734 44.8501 95.7591 45.3374C95.9447 45.8213 96.0375 46.4096 96.0375 47.1023V47.6293H89.9672V46.5156H94.5808C94.5808 46.1245 94.5012 45.7782 94.3422 45.4766C94.1831 45.1716 93.9593 44.9313 93.671 44.7557C93.3859 44.58 93.0512 44.4922 92.6667 44.4922C92.2491 44.4922 91.8845 44.5949 91.573 44.8004C91.2647 45.0026 91.0261 45.2678 90.8571 45.5959C90.6913 45.9207 90.6085 46.2737 90.6085 46.6548V47.5249C90.6085 48.0353 90.698 48.4695 90.877 48.8274C91.0592 49.1854 91.3128 49.4588 91.6376 49.6477C91.9624 49.8333 92.3419 49.9261 92.7761 49.9261C93.0578 49.9261 93.3147 49.8864 93.5467 49.8068C93.7787 49.724 93.9792 49.6013 94.1483 49.4389C94.3173 49.2765 94.4466 49.076 94.536 48.8374L95.943 49.0909C95.8303 49.5052 95.6281 49.8681 95.3365 50.1797C95.0481 50.4879 94.6852 50.7282 94.2477 50.9006C93.8135 51.0696 93.318 51.1541 92.7612 51.1541ZM101.251 43.3636V44.5568H97.0803V43.3636H101.251ZM98.1989 41.5341H99.6854V48.7578C99.6854 49.0462 99.7285 49.2633 99.8146 49.4091C99.9008 49.5516 100.012 49.6494 100.148 49.7024C100.287 49.7521 100.438 49.777 100.6 49.777C100.719 49.777 100.824 49.7687 100.913 49.7521C101.003 49.7356 101.072 49.7223 101.122 49.7124L101.391 50.9403C101.304 50.9735 101.182 51.0066 101.023 51.0398C100.864 51.0762 100.665 51.0961 100.426 51.0994C100.035 51.1061 99.6705 51.0365 99.3324 50.8906C98.9943 50.7448 98.7209 50.5194 98.5121 50.2145C98.3033 49.9096 98.1989 49.5268 98.1989 49.0661V41.5341ZM104.551 51L102.304 43.3636H103.84L105.337 48.9716H105.411L106.913 43.3636H108.449L109.941 48.9467H110.015L111.502 43.3636H113.038L110.796 51H109.279L107.728 45.4865H107.614L106.063 51H104.551ZM117.433 51.1541C116.717 51.1541 116.092 50.9901 115.558 50.6619C115.025 50.3338 114.61 49.8748 114.316 49.2848C114.021 48.6948 113.873 48.0054 113.873 47.2166C113.873 46.4245 114.021 45.7318 114.316 45.1385C114.61 44.5452 115.025 44.0845 115.558 43.7564C116.092 43.4283 116.717 43.2642 117.433 43.2642C118.149 43.2642 118.773 43.4283 119.307 43.7564C119.841 44.0845 120.255 44.5452 120.55 45.1385C120.845 45.7318 120.992 46.4245 120.992 47.2166C120.992 48.0054 120.845 48.6948 120.55 49.2848C120.255 49.8748 119.841 50.3338 119.307 50.6619C118.773 50.9901 118.149 51.1541 117.433 51.1541ZM117.438 49.9062C117.902 49.9062 118.286 49.7836 118.591 49.5384C118.896 49.2931 119.121 48.9666 119.267 48.5589C119.416 48.1513 119.491 47.7022 119.491 47.2116C119.491 46.7244 119.416 46.277 119.267 45.8693C119.121 45.4583 118.896 45.1286 118.591 44.88C118.286 44.6314 117.902 44.5071 117.438 44.5071C116.97 44.5071 116.583 44.6314 116.274 44.88C115.969 45.1286 115.742 45.4583 115.593 45.8693C115.447 46.277 115.374 46.7244 115.374 47.2116C115.374 47.7022 115.447 48.1513 115.593 48.5589C115.742 48.9666 115.969 49.2931 116.274 49.5384C116.583 49.7836 116.97 49.9062 117.438 49.9062ZM122.652 51V43.3636H124.088V44.5767H124.168C124.307 44.1657 124.552 43.8426 124.904 43.6072C125.258 43.3686 125.659 43.2493 126.107 43.2493C126.2 43.2493 126.309 43.2526 126.435 43.2592C126.564 43.2659 126.665 43.2741 126.738 43.2841V44.706C126.679 44.6894 126.573 44.6712 126.42 44.6513C126.268 44.6281 126.115 44.6165 125.963 44.6165C125.611 44.6165 125.298 44.6911 125.023 44.8402C124.751 44.986 124.536 45.1899 124.377 45.4517C124.218 45.7102 124.138 46.0052 124.138 46.3366V51H122.652ZM129.392 48.4098L129.382 46.5952H129.64L132.683 43.3636H134.463L130.993 47.0426H130.759L129.392 48.4098ZM128.025 51V40.8182H129.511V51H128.025ZM132.847 51L130.113 47.3707L131.137 46.3317L134.672 51H132.847Z" fill="#1FD271"/>
</svg>
