<svg width="1920" height="718" viewBox="0 0 1920 718" fill="none" xmlns="http://www.w3.org/2000/svg">
<mask id="mask0_58_833" style="mask-type:alpha" maskUnits="userSpaceOnUse" x="0" y="0" width="1920" height="718">
<rect width="1920" height="718" fill="#D9D9D9"/>
</mask>
<g mask="url(#mask0_58_833)">
<g opacity="0.4">
<path d="M-3191 -3112.86L3039.82 3077.83L1271.62 4846.6C1103.22 5015.06 822.548 5015.06 654.148 4846.6L-3191 1014.27V-3112.86Z" fill="url(#paint0_linear_58_833)"/>
<path d="M1349.16 577.676L3426.59 2642.33L5111 1013.08V-3355L1349.16 577.676Z" fill="url(#paint1_linear_58_833)"/>
</g>
<g opacity="0.25">
<path d="M-1269.94 -1583.51L2077.29 1742.15L1127.4 2692.34C1036.94 2782.84 886.16 2782.84 795.695 2692.34L-1269.94 633.598V-1583.51Z" fill="url(#paint2_linear_58_833)"/>
<path d="M1169.06 399.058L2285.06 1508.2L3189.94 632.959V-1713.59L1169.06 399.058Z" fill="url(#paint3_linear_58_833)"/>
</g>
</g>
<defs>
<linearGradient id="paint0_linear_58_833" x1="-75.5885" y1="-2844.41" x2="-75.5885" y2="4972.94" gradientUnits="userSpaceOnUse">
<stop stop-color="#3147EB"/>
<stop offset="0.578938" stop-color="#3147EB" stop-opacity="0"/>
</linearGradient>
<linearGradient id="paint1_linear_58_833" x1="3230.08" y1="-3018.11" x2="3230.08" y2="2642.33" gradientUnits="userSpaceOnUse">
<stop stop-color="#3147EB"/>
<stop offset="0.937088" stop-color="#3147EB" stop-opacity="0"/>
</linearGradient>
<linearGradient id="paint2_linear_58_833" x1="403.677" y1="-1439.3" x2="403.677" y2="2760.22" gradientUnits="userSpaceOnUse">
<stop stop-color="#3147EB"/>
<stop offset="0.578938" stop-color="#3147EB" stop-opacity="0"/>
</linearGradient>
<linearGradient id="paint3_linear_58_833" x1="2179.5" y1="-1532.62" x2="2179.5" y2="1508.2" gradientUnits="userSpaceOnUse">
<stop stop-color="#3147EB"/>
<stop offset="0.937088" stop-color="#3147EB" stop-opacity="0"/>
</linearGradient>
</defs>
</svg>
