<svg width="358" height="200" viewBox="0 0 358 200" fill="none" xmlns="http://www.w3.org/2000/svg">
<rect width="358" height="200" rx="15" fill="#000B49"/>
<mask id="mask0_35_262" style="mask-type:alpha" maskUnits="userSpaceOnUse" x="0" y="0" width="358" height="200">
<rect width="358" height="200" rx="15" fill="#05081A"/>
</mask>
<g mask="url(#mask0_35_262)">
<path d="M156.408 481.151L-126.567 196.664V44.9369C-126.567 -11.9606 -57.6068 -40.4094 -17.1818 -0.106941L332.375 348.39L201.588 478.781C189.699 493.005 168.297 493.005 156.408 481.151Z" fill="url(#paint0_linear_35_262)"/>
<path d="M360.911 317.571L484.563 196.664V44.9369C484.563 -11.9606 415.603 -40.4094 375.178 -0.106941L206.345 165.844L360.911 317.571Z" fill="url(#paint1_linear_35_262)"/>
</g>
<path d="M58.7752 110.791L46 97.9073V91.0361C46 88.4594 49.1133 87.1711 50.9383 88.9962L66.7194 104.778L60.8149 110.683C60.2781 111.328 59.3119 111.328 58.7752 110.791Z" fill="#3C53FF"/>
<path d="M68.0078 103.383L73.5902 97.9073V91.0361C73.5902 88.4594 70.477 87.1711 68.6519 88.9962L61.0298 96.5116L68.0078 103.383Z" fill="#3C53FF"/>
<path d="M46 108.859V100.807L54.481 109.288C55.3398 110.255 54.6957 111.758 53.5148 111.758H48.8986C47.2883 111.758 46 110.469 46 108.859Z" fill="#3C53FF"/>
<path d="M73.5901 108.859V100.807L65.1091 109.288C64.2502 110.255 64.8944 111.758 66.1826 111.758H70.6915C72.3018 111.758 73.5901 110.469 73.5901 108.859Z" fill="#3C53FF"/>
<path d="M166.213 100.72C168.775 101.213 172.126 102.494 172.027 106.238C172.027 108.012 171.337 109.392 170.056 110.377C168.775 111.363 167.1 111.855 165.031 111.855C161.484 111.855 159.02 110.476 157.739 107.717L161.681 105.549C162.173 107.027 163.356 107.815 165.129 107.815C166.706 107.815 167.593 107.322 167.593 106.337C167.593 105.351 166.213 104.859 164.44 104.366C161.878 103.676 158.626 102.592 158.626 98.9462C158.626 97.2709 159.316 95.8913 160.498 94.9059C161.779 93.9205 163.356 93.4277 165.228 93.4277C168.086 93.4277 170.45 94.7088 171.83 97.1724L167.987 99.2418C167.396 98.0593 166.509 97.468 165.228 97.468C164.046 97.468 163.257 98.0593 163.257 98.9462C163.06 99.7345 164.44 100.227 166.213 100.72Z" fill="white"/>
<path d="M150.251 106.24L149.364 107.522L151.827 111.069H157.05L152.024 103.777L150.251 106.24Z" fill="white"/>
<path d="M152.024 101.213L157.148 93.9209H151.926L149.364 97.567L150.251 98.7495L152.024 101.213Z" fill="white"/>
<path d="M148.576 98.7495L145.127 93.9209H139.905L145.915 102.494L140.003 110.969H145.225L148.576 106.239L151.138 102.494L148.576 98.7495Z" fill="white"/>
<path d="M110.639 100.424V110.87H106.205V100.72C106.205 98.6505 105.121 97.468 103.348 97.468C101.377 97.468 100.195 98.8476 100.195 101.311V110.87H95.8591V100.72C95.8591 98.6505 94.7752 97.468 93.0016 97.468C91.0309 97.468 89.8484 98.8476 89.8484 101.311V110.87H85.4143V93.9205H89.7499V95.6942C90.7352 94.1175 92.3118 93.4277 94.4796 93.4277C96.5489 93.4277 98.1254 94.2161 99.1108 95.8913C100.195 94.3146 101.968 93.4277 104.136 93.4277C108.176 93.4277 110.639 96.1869 110.639 100.424Z" fill="white"/>
<path d="M116.552 92.3439C118.03 92.3439 119.311 91.1614 119.311 89.7818C119.311 88.3036 118.128 87.1211 116.552 87.1211C115.074 87.1211 113.891 88.3036 113.891 89.7818C113.891 91.1614 115.074 92.3439 116.552 92.3439Z" fill="#3C53FF"/>
<path d="M118.818 93.9209H114.482V110.87H118.818V93.9209Z" fill="white"/>
<path d="M126.504 104.169C127.095 106.337 128.672 107.322 131.332 107.322C133.007 107.322 134.288 106.731 135.076 105.647L138.624 107.717C136.949 110.18 134.485 111.363 131.233 111.363C128.376 111.363 126.208 110.476 124.434 108.8C122.759 107.125 121.873 104.957 121.873 102.395C121.873 99.833 122.759 97.7636 124.336 95.9899C126.011 94.2161 128.179 93.4277 130.741 93.4277C133.204 93.4277 135.273 94.3146 136.85 95.9899C138.427 97.7636 139.313 99.833 139.313 102.395C139.313 102.986 139.215 103.578 139.116 104.169H126.504ZM135.076 100.72C134.584 98.4534 132.909 97.2709 130.839 97.2709C128.474 97.2709 126.898 98.552 126.405 100.72H135.076Z" fill="white"/>
<path d="M298.121 99.3734C298.121 98.5131 298.981 97.9624 300.117 97.9624C301.39 97.9624 302.319 98.5475 302.87 99.7175L306.656 97.6527C305.313 95.3126 302.904 94.0049 300.117 94.0049C298.259 94.0049 296.71 94.4867 295.437 95.4847C294.198 96.4482 293.578 97.7904 293.578 99.4766C293.578 103.056 296.779 104.122 299.325 104.776C301.081 105.224 302.457 105.74 302.457 106.669C302.457 107.667 301.666 108.149 300.083 108.149C298.327 108.149 297.226 107.392 296.71 105.912L292.856 108.08C294.129 110.799 296.538 112.175 300.083 112.175C302.044 112.175 303.696 111.693 305.004 110.764C306.346 109.801 307 108.424 307 106.669C307.034 102.987 303.765 101.782 301.253 101.266C299.498 100.819 298.121 100.303 298.121 99.3734Z" fill="#00EE98"/>
<path d="M288.622 109.56C290.377 107.805 291.272 105.637 291.272 103.09C291.272 100.543 290.377 98.4098 288.622 96.6547C286.867 94.8996 284.699 94.0049 282.153 94.0049C279.606 94.0049 277.438 94.8996 275.683 96.6547C273.928 98.4098 273.067 100.543 273.067 103.09C273.067 105.637 273.928 107.805 275.683 109.56C277.438 111.315 279.606 112.175 282.153 112.175C284.699 112.175 286.867 111.315 288.622 109.56ZM278.814 106.497C277.954 105.602 277.507 104.467 277.507 103.09C277.507 101.714 277.954 100.578 278.814 99.6831C279.709 98.7884 280.81 98.341 282.153 98.341C283.495 98.341 284.596 98.7884 285.491 99.6831C286.385 100.578 286.833 101.714 286.833 103.09C286.833 104.467 286.385 105.602 285.491 106.497C284.596 107.392 283.495 107.839 282.153 107.839C280.81 107.839 279.709 107.392 278.814 106.497Z" fill="#00EE98"/>
<path d="M265.449 102.882L271.471 94.4849H266.378L262.902 99.3372L259.426 94.4849H254.299L260.321 102.916L254.023 111.692H259.151L262.902 106.461L266.619 111.692H271.746L265.449 102.882Z" fill="#00EE98"/>
<path d="M253.585 104.914C253.688 104.26 253.757 103.675 253.757 103.09C253.757 100.509 252.931 98.3754 251.279 96.6203C249.662 94.8652 247.563 94.0049 245.051 94.0049C242.401 94.0049 240.198 94.8652 238.512 96.6203C236.826 98.341 235.965 100.509 235.965 103.09C235.965 105.705 236.826 107.874 238.546 109.594C240.267 111.315 242.538 112.175 245.395 112.175C248.698 112.175 251.211 110.936 252.897 108.493L249.318 106.428C248.457 107.564 247.15 108.149 245.463 108.149C242.814 108.149 241.196 107.082 240.611 104.914H253.585ZM240.542 101.473C241.059 99.2701 242.676 97.9968 245.051 97.9968C247.081 97.9968 248.802 99.1325 249.318 101.473H240.542Z" fill="#00EE98"/>
<path d="M230.081 108.561C232.524 106.117 233.729 103.158 233.729 99.6476C233.729 96.1374 232.524 93.1779 230.081 90.7689C227.638 88.3256 224.678 87.1211 221.202 87.1211C217.727 87.1211 214.767 88.3256 212.324 90.7689C209.915 93.1779 208.71 96.1374 208.71 99.6476C208.71 103.158 209.915 106.117 212.324 108.561C214.767 110.97 217.727 112.174 221.202 112.174C224.678 112.174 227.638 110.97 230.081 108.561ZM215.662 105.326C214.182 103.846 213.425 101.953 213.425 99.6476C213.425 97.3419 214.182 95.4492 215.662 93.9694C217.142 92.4896 219 91.7325 221.202 91.7325C223.405 91.7325 225.263 92.4896 226.743 93.9694C228.223 95.4492 228.98 97.3419 228.98 99.6476C228.98 101.953 228.223 103.846 226.743 105.326C225.263 106.806 223.405 107.528 221.202 107.528C219 107.528 217.142 106.806 215.662 105.326Z" fill="#00EE98"/>
<defs>
<linearGradient id="paint0_linear_35_262" x1="102.904" y1="-19" x2="102.904" y2="489.765" gradientUnits="userSpaceOnUse">
<stop stop-color="#001484"/>
<stop offset="0.636645" stop-color="#001277" stop-opacity="0"/>
</linearGradient>
<linearGradient id="paint1_linear_35_262" x1="345.454" y1="-19" x2="345.454" y2="317.571" gradientUnits="userSpaceOnUse">
<stop stop-color="#001484"/>
<stop offset="0.636645" stop-color="#001277" stop-opacity="0"/>
</linearGradient>
</defs>
</svg>
