<svg width="38" height="38" viewBox="0 0 38 38" fill="none" xmlns="http://www.w3.org/2000/svg">
<circle cx="19" cy="19" r="19" fill="#383838"/>
<path d="M20.6274 22.5576C21.073 22.4967 21.4896 22.4404 21.8916 22.3278C23.5384 21.873 24.4829 20.7898 24.6718 19.1345C24.725 18.6421 24.7541 18.1544 24.6766 17.6621C24.5846 17.0525 24.323 16.5132 23.9113 16.049C23.8338 15.9599 23.8096 15.8895 23.8484 15.7817C24.1051 15.0924 24.0034 14.4171 23.7612 13.7466C23.7031 13.5824 23.582 13.5824 23.4609 13.5871C23.1993 13.5918 22.9523 13.6715 22.715 13.7606C22.2549 13.9294 21.8189 14.1451 21.4121 14.4171C21.3055 14.4874 21.2087 14.5015 21.0779 14.4734C19.6926 14.1311 18.3025 14.1311 16.9173 14.4734C16.7962 14.5062 16.709 14.4874 16.6073 14.4171C16.0648 14.0701 15.4885 13.8075 14.8588 13.6387C14.3454 13.5168 14.2631 13.5637 14.1274 14.042C13.9628 14.6328 13.9337 15.2237 14.1517 15.8145C14.1807 15.8942 14.1807 15.9505 14.1178 16.0208C13.3234 16.879 13.183 17.9059 13.3089 18.9985C13.3573 19.4205 13.459 19.8285 13.6043 20.2271C14.0645 21.4603 15.0574 22.0652 16.2925 22.3794C16.6315 22.4685 16.9851 22.506 17.3629 22.5576C17.0481 22.8718 16.8737 23.2141 16.8156 23.6127C16.8011 23.7252 16.7284 23.7674 16.6315 23.7956C15.566 24.1379 14.7716 23.9878 14.1807 23.0265C13.8804 22.5389 13.4542 22.22 12.8681 22.1215C12.8536 22.1168 12.8342 22.1168 12.8197 22.1121C12.6744 22.1028 12.4903 22.084 12.4225 22.2153C12.3547 22.3513 12.5049 22.4732 12.6163 22.5295C13.2362 22.8718 13.5365 23.4345 13.8078 24.0394C14.0548 24.5974 14.5537 24.8553 15.1494 24.9491C15.6871 25.0335 16.2247 25.0288 16.7768 24.9257C16.7768 25.4978 16.7817 26.0511 16.772 26.6044C16.7672 26.8342 16.6025 26.9702 16.37 26.9889C16.2198 26.9983 16.0794 26.9608 15.9486 26.9092C12.6211 25.6478 10.6014 23.3266 10.0928 19.8988C9.43892 15.4769 12.3014 11.3644 16.7623 10.2765C22.0272 8.99636 26.9192 12.3116 27.8443 17.1134C28.658 21.3337 26.2168 25.4509 22.066 26.9139C21.9691 26.9467 21.8674 26.9842 21.7657 26.9936C21.4218 27.0358 21.228 26.867 21.228 26.5294C21.2232 25.8026 21.2232 25.0757 21.228 24.3489C21.2329 23.6971 21.1554 23.0734 20.6274 22.5576Z" fill="#9A9DA7"/>
</svg>
