<svg width="38" height="38" viewBox="0 0 38 38" fill="none" xmlns="http://www.w3.org/2000/svg">
<circle cx="19" cy="19" r="19" fill="#383838"/>
<g clip-path="url(#clip0_22_464)">
<path d="M27.9856 19.6414C27.9799 20.1131 27.9108 20.5733 27.8044 21.0307C27.6002 21.9195 27.2694 22.7565 26.8092 23.5446C26.5187 24.0422 26.1764 24.4995 25.8025 24.9396C25.3193 25.5034 24.767 25.9895 24.163 26.4151C23.6481 26.7804 23.093 27.0825 22.5062 27.3269C21.9338 27.5686 21.3442 27.744 20.7402 27.8677C20.3663 27.9453 19.9837 27.9655 19.604 28C19.2013 28 18.7987 28 18.396 28C18.232 27.9712 18.0623 27.9856 17.8984 27.9655C17.2483 27.8936 16.6155 27.7469 16 27.5283C15.094 27.2033 14.2512 26.7546 13.489 26.1592C12.7383 25.5695 12.0825 24.8907 11.5446 24.1026C11.1994 23.5992 10.906 23.07 10.6702 22.5062C10.4314 21.9338 10.2589 21.3442 10.1294 20.7402C10.0489 20.3663 10.0316 19.9837 10 19.604C10 19.2013 10 18.7987 10 18.396C10.0259 18.3672 10.0144 18.3327 10.0144 18.3011C10.0201 17.9214 10.069 17.5475 10.1467 17.1764C10.3797 16.0834 10.7852 15.0594 11.395 14.1218C11.7661 13.5494 12.1946 13.0201 12.6836 12.5427C13.302 11.9415 13.9895 11.4353 14.7517 11.0268C15.5484 10.6012 16.3912 10.3106 17.2742 10.1294C17.6453 10.0546 18.0221 10.0316 18.396 10C18.7987 10 19.2013 10 19.604 10C19.6385 10.0259 19.6788 10.0144 19.7133 10.0144C20.093 10.0201 20.4669 10.0719 20.838 10.1496C21.7095 10.3394 22.5407 10.6357 23.3231 11.0671C24.2033 11.5532 24.9827 12.1659 25.6616 12.9051C26.1735 13.466 26.6136 14.0786 26.9732 14.7517C27.3988 15.5484 27.6894 16.3912 27.8706 17.2742C27.9454 17.6453 27.9684 18.0221 28 18.396C28 18.7987 28 19.2013 28 19.604C27.9914 19.6155 27.9856 19.627 27.9856 19.6414ZM22.9118 25.7478C23.6826 25.2963 24.3586 24.7325 24.9396 24.0537C25.1467 23.8092 25.3394 23.5532 25.5149 23.2857C25.558 23.2196 25.5609 23.1965 25.4775 23.1965C24.9367 23.1965 24.396 23.1965 23.8523 23.1965C23.7747 23.1965 23.7632 23.2454 23.7402 23.303C23.6424 23.5733 23.5475 23.8437 23.4382 24.1083C23.185 24.721 22.883 25.3106 22.4976 25.8514C22.4688 25.8945 22.4343 25.9319 22.3854 25.9952C22.5954 25.9434 22.7536 25.8428 22.9118 25.7478ZM19.6012 26.6625C19.6012 26.6769 19.6069 26.6913 19.6127 26.72C20.0297 26.5992 20.3893 26.395 20.7114 26.1246C21.3557 25.581 21.7958 24.8849 22.1582 24.1342C22.2905 23.8639 22.3941 23.582 22.5034 23.3001C22.5379 23.2081 22.512 23.1937 22.4257 23.1937C21.5197 23.1965 20.6165 23.1965 19.7105 23.1937C19.6328 23.1937 19.6012 23.2138 19.6012 23.2972C19.6012 24.4219 19.6012 25.5407 19.6012 26.6625ZM19.5983 21.8878C19.5983 21.977 19.6213 22 19.7105 22C20.7315 21.9971 21.7526 21.9971 22.7737 22C22.8571 22 22.8888 21.9741 22.906 21.8936C23.0585 21.1659 23.1419 20.4295 23.1908 19.6874C23.1994 19.5724 23.1246 19.604 23.07 19.604C22.5091 19.6012 21.9482 19.604 21.3873 19.604C20.8322 19.604 20.2771 19.6069 19.7191 19.6012C19.627 19.6012 19.5983 19.6242 19.5983 19.7191C19.604 20.441 19.604 21.163 19.5983 21.8878ZM19.7248 18.4017C20.28 18.396 20.838 18.3988 21.3931 18.3988C21.9482 18.3988 22.5062 18.396 23.0614 18.4017C23.1707 18.4017 23.1908 18.3758 23.185 18.2665C23.1419 17.5446 23.0527 16.8284 22.906 16.1179C22.8888 16.0316 22.86 16 22.768 16C21.7526 16.0029 20.7373 16.0029 19.7191 16C19.627 16 19.5983 16.023 19.5983 16.1179C19.6012 16.837 19.6012 17.5561 19.5983 18.2752C19.5983 18.3758 19.6242 18.4017 19.7248 18.4017ZM18.4017 16.1237C18.4017 16.0201 18.3701 16 18.2723 16C17.2656 16.0029 16.2589 16.0029 15.255 16C15.1457 16 15.1141 16.0345 15.0911 16.1381C14.9415 16.8514 14.8581 17.5733 14.815 18.3011C14.8063 18.419 14.8725 18.3988 14.9358 18.3988C15.4966 18.3988 16.0575 18.3988 16.6184 18.3988C17.1707 18.3988 17.72 18.396 18.2723 18.4017C18.3643 18.4017 18.4046 18.3902 18.4046 18.2809C18.396 17.5618 18.396 16.8428 18.4017 16.1237ZM18.4017 19.7162C18.4017 19.6213 18.373 19.5983 18.2809 19.5983C17.72 19.6011 17.1592 19.6012 16.5983 19.6012C16.0604 19.6012 15.5254 19.6069 14.9875 19.5983C14.8495 19.5954 14.8035 19.6155 14.815 19.7737C14.8639 20.4813 14.9473 21.1831 15.0911 21.8792C15.1112 21.9741 15.1457 22 15.2407 22C16.2502 21.9971 17.2627 21.9971 18.2723 22C18.373 22 18.3988 21.9741 18.3988 21.8734C18.396 21.1544 18.396 20.4353 18.4017 19.7162ZM16.3509 25.0489C16.722 25.6184 17.1735 26.116 17.7661 26.464C17.93 26.559 18.1083 26.6309 18.2867 26.6913C18.3787 26.7229 18.3988 26.6999 18.3988 26.605C18.396 26.0527 18.396 25.5034 18.396 24.9511C18.396 24.4132 18.3931 23.8782 18.3988 23.3404C18.3988 23.2368 18.3845 23.1908 18.2608 23.1908C17.3749 23.1965 16.489 23.1965 15.6031 23.1908C15.4938 23.1908 15.465 23.1994 15.5081 23.3231C15.7239 23.9358 16 24.511 16.3509 25.0489ZM12.5081 23.3116C13.1467 24.2752 13.9578 25.0575 14.9473 25.6587C15.1457 25.7795 15.3471 25.8945 15.5714 25.9779C15.3097 25.6012 15.0911 25.2042 14.8811 24.8044C14.6309 24.3269 14.441 23.8207 14.2656 23.3116C14.2368 23.2311 14.2052 23.1965 14.116 23.1965C13.5983 23.1994 13.0805 23.1994 12.5628 23.1994C12.5283 23.1994 12.4794 23.1793 12.4564 23.2196C12.4334 23.2627 12.488 23.2828 12.5081 23.3116ZM11.2339 19.7306C11.303 20.4842 11.4899 21.209 11.7574 21.9137C11.7833 21.9799 11.815 21.9971 11.8811 21.9971C12.5225 21.9942 13.1668 21.9942 13.8082 21.9971C13.8859 21.9971 13.906 21.9741 13.8917 21.8965C13.7392 21.1687 13.6472 20.4324 13.6213 19.6903C13.6184 19.5925 13.5666 19.5983 13.5005 19.5983C13.1409 19.5983 12.7814 19.5983 12.4219 19.5983C12.0681 19.5983 11.7114 19.6011 11.3576 19.5954C11.257 19.5954 11.2224 19.6127 11.2339 19.7306ZM11.7661 16.069C11.5388 16.6702 11.3634 17.2828 11.2742 17.9214C11.2598 18.0336 11.2541 18.1515 11.2368 18.2637C11.2196 18.3643 11.2339 18.4046 11.3547 18.4017C11.7085 18.3931 12.0623 18.3988 12.4161 18.3988C12.7785 18.3988 13.1438 18.396 13.5062 18.4017C13.5896 18.4017 13.6213 18.3816 13.6242 18.2895C13.65 17.5618 13.7392 16.8399 13.8888 16.1294C13.9118 16.0259 13.8859 16 13.7824 16C13.1553 16.0058 12.5283 16.0029 11.9012 16.0029C11.8466 16.0029 11.7948 15.9914 11.7661 16.069ZM15.5484 12.0019C15.5254 11.9847 15.5168 12.0077 15.5024 12.0163C14.5791 12.511 13.7536 13.1294 13.0748 13.929C12.8619 14.1793 12.6635 14.4439 12.4794 14.72C12.419 14.8121 12.4794 14.8035 12.534 14.8035C12.8015 14.8035 13.0719 14.8035 13.3394 14.8035C13.5896 14.8035 13.837 14.8006 14.0872 14.8063C14.1879 14.8092 14.2339 14.7833 14.2713 14.6798C14.5475 13.8456 14.9099 13.0518 15.3902 12.3126C15.4449 12.2291 15.4995 12.1457 15.5542 12.0623C15.5657 12.0393 15.5772 12.0221 15.5484 12.0019ZM18.2665 11.3145C17.697 11.5158 17.2311 11.8667 16.837 12.3154C16.2215 13.0201 15.8044 13.837 15.4938 14.7143C15.4449 14.8495 15.5542 14.8035 15.6031 14.8035C16.3797 14.8063 17.1563 14.8063 17.93 14.8063C18.0364 14.8063 18.1429 14.7977 18.2464 14.8092C18.3643 14.8207 18.4017 14.7833 18.3988 14.6625C18.3931 14.1218 18.396 13.581 18.396 13.0403C18.396 12.4995 18.3931 11.9588 18.3988 11.418C18.4046 11.2857 18.3672 11.2771 18.2665 11.3145ZM20.1189 11.4784C19.9578 11.395 19.7939 11.3202 19.6012 11.2828C19.6012 11.3375 19.6012 11.3806 19.6012 11.4238C19.6012 12.5024 19.604 13.5781 19.5983 14.6568C19.5983 14.7804 19.6357 14.8063 19.7507 14.8063C20.6309 14.8006 21.5139 14.8035 22.3941 14.8063C22.4976 14.8063 22.5379 14.8063 22.4919 14.6769C22.279 14.0729 22.0086 13.5005 21.6577 12.9684C21.255 12.3586 20.7804 11.8207 20.1189 11.4784ZM25.5177 14.7143C24.8821 13.7565 24.0767 12.9741 23.0988 12.3672C22.8974 12.2407 22.6903 12.1227 22.4717 12.0221C22.4487 12.0105 22.4257 12.0134 22.3998 12.0192C22.7536 12.4909 23.0297 12.9971 23.2742 13.5206C23.4583 13.9089 23.6079 14.3116 23.743 14.72C23.7632 14.7804 23.7977 14.8006 23.8581 14.8006C24.3931 14.7977 24.931 14.8006 25.466 14.8006C25.5436 14.8035 25.5695 14.7919 25.5177 14.7143ZM26.7632 18.2809C26.7143 17.7344 26.6136 17.1994 26.4439 16.6788C26.3806 16.4832 26.303 16.2934 26.2426 16.0949C26.2167 16.0115 26.1735 15.9971 26.0988 15.9971C25.7824 16 25.466 15.9971 25.1496 15.9971C24.8389 15.9971 24.5254 16 24.2148 15.9971C24.1285 15.9971 24.0853 16 24.1083 16.1122C24.2579 16.8341 24.35 17.5676 24.3758 18.3039C24.3787 18.3701 24.3989 18.396 24.4679 18.396C25.2071 18.3931 25.9434 18.3931 26.6826 18.396C26.7919 18.4017 26.7689 18.3413 26.7632 18.2809ZM26.6683 19.6012C26.303 19.604 25.9406 19.6012 25.5753 19.6012C25.2157 19.6012 24.8562 19.604 24.4966 19.5983C24.4017 19.5983 24.3787 19.627 24.3758 19.7191C24.35 20.4439 24.2608 21.1601 24.1112 21.8677C24.0911 21.9684 24.1083 22 24.2176 21.9971C24.8447 21.9914 25.4717 21.9942 26.1016 21.9942C26.1592 21.9942 26.2081 22 26.2368 21.9252C26.464 21.3298 26.6366 20.7172 26.7258 20.0844C26.743 19.9578 26.7488 19.8255 26.7689 19.6989C26.7833 19.6127 26.7488 19.5983 26.6683 19.6012Z" fill="#9A9DA7"/>
</g>
<defs>
<clipPath id="clip0_22_464">
<rect width="18" height="18" fill="white" transform="matrix(1 0 0 -1 10 28)"/>
</clipPath>
</defs>
</svg>
