<svg width="38" height="38" viewBox="0 0 38 38" fill="none" xmlns="http://www.w3.org/2000/svg">
<circle cx="19" cy="19" r="19" fill="#383838"/>
<path d="M27.9829 16.4332C27.9662 15.6368 27.9537 14.8404 27.8035 14.0524C27.4032 11.9634 25.8392 10.4666 23.7331 10.1622C22.7822 10.0246 21.823 10.0204 20.8679 10.0121C19.3916 9.99123 17.9152 9.99957 16.443 10.0204C15.6464 10.0329 14.8499 10.0496 14.0616 10.1997C11.9555 10.6 10.4583 12.1677 10.158 14.2817C10.0246 15.2282 10.0162 16.1789 10.0079 17.1253C9.9912 18.5889 10.0037 20.0566 10.0204 21.5201C10.0287 22.329 10.0496 23.142 10.1997 23.9426C10.6001 26.0315 12.164 27.5284 14.2702 27.8328C15.2294 27.9704 16.1928 27.9745 17.1562 27.9871C18.62 28.0037 20.088 27.9912 21.5519 27.9746C22.3568 27.9662 23.1617 27.9537 23.9541 27.7911C24.9801 27.5784 25.8726 27.1365 26.5941 26.3609C27.4699 25.4228 27.8285 24.2761 27.9161 23.0294C28.0079 21.6868 27.9995 20.3359 27.9787 18.9891C27.987 18.1386 27.9995 17.288 27.9829 16.4332ZM26.3814 19.0058C26.373 20.24 26.4064 21.4784 26.3313 22.7126C26.2896 23.3964 26.1937 24.0677 25.8559 24.6764C25.3304 25.6229 24.4838 26.0941 23.4411 26.2525C22.7405 26.3609 22.0315 26.3693 21.3225 26.3734C19.6335 26.3818 17.9444 26.3859 16.2595 26.3651C15.5672 26.3568 14.8707 26.3484 14.1909 26.1775C12.8105 25.8356 11.9347 24.8515 11.747 23.4339C11.6552 22.7376 11.6302 22.0371 11.6302 21.3366C11.6219 19.5437 11.601 17.7508 11.6469 15.962C11.6636 15.2907 11.6803 14.6153 11.8846 13.9648C12.2641 12.7431 13.1108 12.0385 14.3494 11.7883C15.1501 11.6257 15.9634 11.6299 16.7766 11.6257C18.4157 11.6132 20.0547 11.6132 21.6937 11.634C22.3985 11.6424 23.1075 11.6465 23.804 11.8217C25.2011 12.1677 26.0728 13.1392 26.2604 14.5777C26.3772 15.4534 26.3772 16.3373 26.3814 17.2171C26.3855 17.8092 26.3814 18.4054 26.3814 19.0058Z" fill="#9A9DA7"/>
<path d="M18.966 14.3779C16.4387 14.3821 14.3784 16.4794 14.3784 19.0312C14.3826 21.5538 16.4804 23.6219 19.0327 23.6177C21.5559 23.6135 23.6245 21.5121 23.6203 18.9645C23.6161 16.4419 21.5184 14.3738 18.966 14.3779ZM18.9785 21.9999C17.3103 21.9999 16.0008 20.6573 16.0008 18.9603C16.0008 17.305 17.352 15.9957 19.0578 15.9999C20.6801 15.9999 22.0063 17.355 22.0063 19.0103C22.0021 20.6823 20.6676 21.9999 18.9785 21.9999Z" fill="#9A9DA7"/>
<path d="M23.8288 13.1222C23.2283 13.1138 22.7361 13.5933 22.732 14.1896C22.7278 14.7775 23.2032 15.2612 23.7954 15.2695C24.3793 15.2778 24.8756 14.7983 24.8798 14.2146C24.8881 13.6225 24.4127 13.1305 23.8288 13.1222Z" fill="#9A9DA7"/>
</svg>
