<svg width="38" height="38" viewBox="0 0 38 38" fill="none" xmlns="http://www.w3.org/2000/svg">
<circle cx="19" cy="19" r="19" fill="#383838"/>
<path d="M19.9031 19.5089C19.9119 16.4466 17.5007 14.0002 14.4736 14.0002C11.4552 14.0002 9.01769 16.4466 9.00009 19.4825C8.98249 22.5008 11.4464 24.9912 14.4472 25C17.4655 25.0088 19.8943 22.5624 19.9031 19.5089Z" fill="#9A9DA7"/>
<path d="M25.9751 19.5797C25.9927 18.3213 25.7991 17.1774 25.3151 16.0862C25.1127 15.6286 24.8311 15.215 24.4703 14.8718C23.7223 14.159 22.7983 14.159 22.0504 14.8806C21.364 15.5406 21.0208 16.3678 20.8096 17.2566C20.3344 19.2453 20.4224 21.1989 21.3024 23.082C21.5048 23.5132 21.7864 23.8828 22.1384 24.1996C22.8247 24.8156 23.7135 24.8068 24.3999 24.1908C25.1391 23.522 25.4823 22.642 25.7287 21.7181C25.9223 20.9965 26.0015 20.2485 25.9751 19.5797Z" fill="#9A9DA7"/>
<path d="M28.527 19.7908C28.527 18.1452 28.4742 16.8165 28.0694 15.5317C27.9815 15.2589 27.9287 14.8893 27.5679 14.8981C27.2335 14.8981 27.1807 15.2589 27.1015 15.5141C26.7319 16.6229 26.6615 17.7756 26.6263 18.9372C26.5823 20.3716 26.6615 21.806 27.0135 23.2051C27.0663 23.4339 27.1543 23.6539 27.2599 23.8563C27.4535 24.2259 27.6911 24.2259 27.9023 23.8739C28.087 23.5571 28.1838 23.2051 28.2542 22.8443C28.4566 21.7268 28.5446 20.6092 28.527 19.7908Z" fill="#9A9DA7"/>
</svg>
