<svg width="38" height="38" viewBox="0 0 38 38" fill="none" xmlns="http://www.w3.org/2000/svg">
<circle cx="19" cy="19" r="19" fill="#383838"/>
<path d="M28.6278 17.4873C27.9127 16.469 26.4883 16.262 25.4449 17.0285C25.3218 17.1236 25.2456 17.1236 25.1225 17.0397C24.7356 16.7767 24.3136 16.5529 23.8798 16.3627C22.5609 15.7807 21.1776 15.4674 19.7297 15.3947C19.5597 15.3835 19.4308 15.3947 19.4835 15.1541C19.7942 13.8168 20.0932 12.4795 20.3804 11.1422C20.4214 10.9463 20.4859 10.9016 20.6852 10.9463C21.5879 11.1366 22.4965 11.3212 23.3992 11.4947C23.6102 11.5339 23.6923 11.6234 23.7392 11.8248C23.9678 12.7537 25.0053 13.2404 25.8787 12.8488C26.5117 12.5634 26.8459 12.0095 26.7873 11.3324C26.7404 10.7561 26.248 10.2022 25.6442 10.0511C24.9994 9.88882 24.3488 10.1182 23.956 10.6666C23.8623 10.7953 23.786 10.8232 23.6278 10.7897C22.5551 10.5659 21.4765 10.3532 20.398 10.135C19.9466 10.0455 19.8059 10.1238 19.7122 10.5379C19.378 12.0374 19.0322 13.537 18.7215 15.0422C18.6629 15.3275 18.5457 15.3835 18.2702 15.4003C16.3241 15.501 14.5069 15.9934 12.8774 17.0397C12.7308 17.1348 12.6605 17.1069 12.5315 17.0117C11.5116 16.262 10.0813 16.4802 9.37207 17.4929C8.66867 18.4889 8.99106 19.8206 10.0989 20.4473C10.2513 20.5368 10.2865 20.6263 10.2689 20.783C10.2279 21.2306 10.2455 21.6783 10.3568 22.1147C10.691 23.4296 11.5233 24.4144 12.6488 25.1866C14.5363 26.4847 16.6875 26.9771 18.9853 26.9995C19.6008 27.0051 20.2163 26.9659 20.8259 26.8764C22.6078 26.6078 24.2667 26.0483 25.6735 24.9404C27.0569 23.8493 27.8834 22.4952 27.7134 20.7159C27.7017 20.5704 27.772 20.5256 27.8775 20.4641C29.003 19.8262 29.3371 18.4945 28.6278 17.4873ZM14.0087 20.1395C14.0087 19.317 14.7121 18.6456 15.5738 18.6512C16.412 18.6568 17.1213 19.3282 17.1271 20.1284C17.133 20.9509 16.4354 21.6223 15.5738 21.6279C14.7004 21.6223 14.0087 20.9677 14.0087 20.1395ZM22.602 24.1794C22.051 24.6438 21.3827 24.8676 20.6793 25.0131C20.1283 25.125 19.5597 25.1754 18.9325 25.1866C18.0064 25.153 17.0333 25.0467 16.1248 24.6326C15.8317 24.4983 15.5621 24.3305 15.3334 24.1179C15.1517 23.95 15.1283 23.7598 15.2807 23.5695C15.4214 23.3961 15.6676 23.3737 15.8551 23.5359C16.4823 24.0731 17.262 24.2466 18.0533 24.3529C19.1905 24.4983 20.31 24.4144 21.3886 24.0004C21.6465 23.9052 21.8751 23.7709 22.0861 23.5975C22.3382 23.3905 22.5551 23.3793 22.7309 23.5639C22.8951 23.7262 22.854 23.9668 22.602 24.1794ZM22.432 21.6223C21.5703 21.6223 20.8728 20.9453 20.8786 20.1228C20.8845 19.3226 21.5938 18.6512 22.4379 18.6456C23.2995 18.6456 23.9971 19.317 23.9971 20.1395C23.9912 20.9677 23.2995 21.6279 22.432 21.6223Z" fill="#9A9DA7"/>
</svg>
