<svg width="202" height="44" viewBox="0 0 202 44" fill="none" xmlns="http://www.w3.org/2000/svg">
<path d="M105.046 19.4982V35.4896H98.3577V19.9658C98.3577 16.833 96.7675 15.0562 94.0081 15.0562C90.9681 15.0562 89.1908 17.1136 89.1908 20.901V35.4896H82.5027V19.9658C82.5027 16.833 80.9125 15.0562 78.1531 15.0562C75.2065 15.0562 73.289 17.1136 73.289 20.901V35.4896H66.6008V9.53868H73.289V12.2974C74.8324 9.9595 77.2176 8.8373 80.4916 8.8373C83.6719 8.8373 86.0572 10.0998 87.5538 12.578C89.2843 10.0998 91.8567 8.8373 95.2709 8.8373C101.211 8.79054 105.046 12.9988 105.046 19.4982Z" fill="white"/>
<path d="M114.072 7.24757C116.13 7.24757 117.814 5.61102 117.814 3.64716C117.814 1.68331 116.13 0 114.072 0C112.061 0 110.377 1.68331 110.377 3.64716C110.377 5.61102 112.061 7.24757 114.072 7.24757Z" fill="white"/>
<path d="M117.44 9.53906H110.751V35.49H117.44V9.53906Z" fill="white"/>
<path d="M129.226 25.2491C130.114 28.5222 132.546 30.112 136.569 30.112C139.094 30.112 141.105 29.2236 142.368 27.5403L147.747 30.6731C145.221 34.3671 141.433 36.2374 136.428 36.2374C132.125 36.2374 128.711 34.9282 126.092 32.3564C123.473 29.7847 122.21 26.5116 122.21 22.5372C122.21 18.6562 123.52 15.3831 126.045 12.7646C128.571 10.0994 131.892 8.83691 135.914 8.83691C139.702 8.83691 142.883 10.1462 145.315 12.7646C147.793 15.4299 149.056 18.6094 149.056 22.5372C149.056 23.4256 148.963 24.314 148.776 25.2959H129.226V25.2491ZM142.368 20.059C141.573 16.5521 139.001 14.822 135.914 14.822C132.313 14.822 129.881 16.7391 129.132 20.059H142.368Z" fill="white"/>
<path d="M35.0308 1.54297L23.3383 8.18268L11.6925 1.54297L0 8.18268L4.25608 24.0806L23.3383 22.8352L42.4205 24.0806L46.6766 8.18268L35.0308 1.54297Z" fill="url(#paint0_linear_33_1181)"/>
<path d="M23.3383 36.0512V35.7706V21.4625L0 8.18311V37.3604L11.6458 44.0001H11.6925V29.4115L23.3383 36.0512Z" fill="url(#paint1_linear_33_1181)"/>
<path d="M46.6767 8.18311L23.3384 21.4625V36.0512L35.0309 29.4115V44.0001L46.6767 37.3604V8.18311Z" fill="url(#paint2_linear_33_1181)"/>
<path d="M23.3381 37.3601V36.0508L11.6924 29.4111V43.9998L23.3381 37.3601Z" fill="url(#paint3_linear_33_1181)"/>
<path d="M35.0309 43.9998V29.4111L23.3384 36.0508V37.3601L35.0309 43.9998Z" fill="url(#paint4_linear_33_1181)"/>
<path d="M164.257 28.1952L162.947 30.0655L166.736 35.4427H174.733L166.923 24.4077L164.257 28.1952Z" fill="white"/>
<path d="M166.923 20.62L174.827 9.39795H166.829L162.947 14.9155L164.257 16.8325L166.923 20.62Z" fill="white"/>
<path d="M161.591 16.8326L156.4 9.39795H148.402L157.616 22.4903L148.495 35.4424H156.493L161.591 28.1949L165.613 22.4903L161.591 16.8326Z" fill="white"/>
<path d="M191.43 28.1952L190.12 30.0655L193.909 35.4427H201.906L194.096 24.4077L191.43 28.1952Z" fill="white"/>
<path d="M194.096 20.62L202 9.39795H194.002L190.12 14.9155L191.43 16.8325L194.096 20.62Z" fill="white"/>
<path d="M188.764 16.8326L183.572 9.39795H175.575L184.788 22.4903L175.668 35.4424H183.666L188.764 28.1949L192.786 22.4903L188.764 16.8326Z" fill="white"/>
<defs>
<linearGradient id="paint0_linear_33_1181" x1="39.6096" y1="12.4665" x2="5.86899" y2="4.39614" gradientUnits="userSpaceOnUse">
<stop stop-color="#14F2FD"/>
<stop offset="1" stop-color="#8F00FF"/>
</linearGradient>
<linearGradient id="paint1_linear_33_1181" x1="1.21729e-07" y1="8.80033" x2="23.4669" y2="30.806" gradientUnits="userSpaceOnUse">
<stop stop-color="#E639FF"/>
<stop offset="1" stop-color="#7000FF"/>
</linearGradient>
<linearGradient id="paint2_linear_33_1181" x1="46.4863" y1="8.80033" x2="35.0127" y2="44.0018" gradientUnits="userSpaceOnUse">
<stop stop-color="#13C3EA"/>
<stop offset="1" stop-color="#0057FF"/>
</linearGradient>
<linearGradient id="paint3_linear_33_1181" x1="11.6709" y1="36.689" x2="23.3419" y2="36.689" gradientUnits="userSpaceOnUse">
<stop stop-color="#7B27FF"/>
<stop offset="1"/>
</linearGradient>
<linearGradient id="paint4_linear_33_1181" x1="23.3421" y1="36.6891" x2="35.0131" y2="36.6891" gradientUnits="userSpaceOnUse">
<stop/>
<stop offset="1" stop-color="#404AFF"/>
</linearGradient>
</defs>
</svg>
