<svg width="109" height="106" viewBox="0 0 109 106" fill="none" xmlns="http://www.w3.org/2000/svg">
<g clip-path="url(#clip0_58_801)">
<path d="M23.6799 94.9847H18.1666V98.5779H23.4991V100.581H18.1666V105.764H16.0276V92.9819H23.6799V94.9847Z" fill="#FE5060"/>
<path d="M26.2407 95.1909C25.7586 94.6902 25.7586 93.9539 26.2407 93.4532C26.7528 92.9525 27.5361 92.9525 28.0483 93.4532C28.5303 93.9539 28.5303 94.6902 28.0182 95.1909C27.506 95.6621 26.7528 95.6621 26.2407 95.1909ZM26.1202 105.764V96.634H28.1387V105.764H26.1202Z" fill="#FE5060"/>
<path d="M41.7864 96.634H43.9254L41.003 105.764H39.0147L37.0865 99.6088L35.1283 105.764H33.1399L30.2175 96.634H32.3566L34.1642 102.937L36.1224 96.634H38.0506L39.9787 102.937L41.7864 96.634Z" fill="#040019"/>
<path d="M52.9937 96.6341H55.0122V105.764H52.9937V104.439C52.2405 105.47 51.1559 106 49.7399 106C48.4445 106 47.3599 105.558 46.4561 104.616C45.5522 103.673 45.1003 102.525 45.1003 101.199C45.1003 99.8444 45.5522 98.7252 46.4561 97.7827C47.3599 96.8402 48.4445 96.3984 49.7399 96.3984C51.1559 96.3984 52.2405 96.8991 52.9937 97.93V96.6341ZM50.0412 104.115C50.8848 104.115 51.5777 103.85 52.1501 103.29C52.7225 102.731 52.9937 102.024 52.9937 101.199C52.9937 100.375 52.7225 99.6677 52.1501 99.1081C51.5777 98.5485 50.8848 98.254 50.0412 98.254C49.1976 98.254 48.5047 98.519 47.9323 99.1081C47.3599 99.6677 47.0887 100.345 47.0887 101.199C47.0887 102.053 47.3599 102.731 47.9323 103.29C48.5047 103.85 49.1976 104.115 50.0412 104.115Z" fill="#040019"/>
<path d="M57.9343 105.764V92.4224H59.9528V105.764H57.9343Z" fill="#040019"/>
<path d="M62.8452 105.764V92.4224H64.8637V105.764H62.8452Z" fill="#040019"/>
<path d="M69.3526 102.024C69.6539 103.408 70.7988 104.174 72.3352 104.174C73.3897 104.174 74.2031 103.791 74.7454 103.055L76.4024 103.997C75.4986 105.323 74.1127 106 72.3051 106C70.7988 106 69.5635 105.558 68.6296 104.645C67.6957 103.732 67.2136 102.583 67.2136 101.199C67.2136 99.8444 67.6655 98.6957 68.5995 97.7827C69.5033 96.8402 70.7084 96.3984 72.1545 96.3984C73.5102 96.3984 74.6249 96.8697 75.5287 97.8122C76.4325 98.7547 76.8543 99.9033 76.8543 101.229C76.8543 101.435 76.8242 101.7 76.7941 102.053H69.3526V102.024ZM74.8057 100.433C74.5345 98.9608 73.4499 98.195 72.1243 98.195C70.618 98.195 69.5937 99.0492 69.2924 100.433H74.8057Z" fill="#040019"/>
<path d="M84.0849 98.5191H81.7651V102.908C81.7651 104.086 82.5484 104.056 84.0849 103.997V105.764C81.0119 106.118 79.7465 105.323 79.7465 102.908V98.5191H78.0293V96.6342H79.7465V94.6608L81.7651 94.0718V96.6342H84.0849V98.5191Z" fill="#040019"/>
<path d="M89.7187 100.345C91.1648 100.669 93.0327 101.229 92.9724 103.202C92.9724 104.086 92.6109 104.763 91.918 105.264C91.225 105.764 90.3815 106 89.327 106C87.4893 106 86.1034 105.205 85.531 103.85L87.2784 102.878C87.6098 103.762 88.2726 104.203 89.3572 104.203C90.4116 104.203 90.9539 103.85 90.9539 103.173C90.9539 102.583 90.1706 102.23 89.1764 101.994C87.7905 101.641 85.8925 101.111 85.9227 99.1964C85.9227 98.3423 86.2541 97.6944 86.8867 97.1642C87.5495 96.6635 88.363 96.3984 89.327 96.3984C90.8635 96.3984 92.1289 97.1053 92.7916 98.2834L91.1045 99.2259C90.7731 98.519 90.2007 98.195 89.3572 98.195C88.604 98.195 88.0014 98.519 88.0014 99.167C87.9713 99.756 88.7546 100.051 89.7187 100.345Z" fill="#040019"/>
<path d="M26.994 43.884L10.8458 51.5712C10.1228 51.8952 9.97216 52.8671 10.5747 53.3972C12.1112 54.7226 15.2143 56.8137 20.2455 57.874C27.9581 59.5234 33.2604 53.6918 33.2604 53.6918L38.4724 44.0902C35.4898 44.5614 29.7356 43.9135 26.994 43.884Z" fill="url(#paint0_linear_58_801)"/>
<path d="M82.0362 43.884L98.2145 51.6006C98.9375 51.9246 99.0882 52.8965 98.4856 53.4267C96.9491 54.7521 93.846 56.8432 88.8148 57.9035C81.1023 59.5528 75.7999 53.7212 75.7999 53.7212L70.5879 44.1197C73.5404 44.5614 79.2946 43.9135 82.0362 43.884Z" fill="url(#paint1_linear_58_801)"/>
<path d="M81.9459 43.8841C78.3908 43.943 74.5647 43.5601 70.5277 42.647L67.6355 40.5559L54.7712 50.128L41.3947 40.5559L38.5025 42.647C34.4655 43.5895 30.6393 43.9724 27.0542 43.8841C32.5675 45.5923 44.6484 51.4828 47.149 62.2919C47.2093 62.557 46.8176 62.7043 46.6971 62.4687C45.5824 60.3775 43.1722 57.0199 38.9243 55.2822C38.6833 55.1939 38.4724 55.4589 38.623 55.6651C39.9185 57.1672 42.5395 60.7015 41.937 64.2653C41.1537 68.9482 37.9602 69.4489 37.9602 73.3367C37.9602 76.3998 48.0528 82.5848 52.361 85.0883C53.536 85.7657 55.0122 85.7657 56.1871 85.0883C60.4953 82.5848 70.5879 76.3998 70.5879 73.3367C70.5879 69.4489 67.3944 68.9482 66.6111 64.2653C66.0086 60.7015 68.6297 57.1672 69.9251 55.6651C70.1059 55.4589 69.8649 55.1939 69.6239 55.2822C65.3759 57.0199 62.9959 60.3775 61.851 62.4687C61.7305 62.7043 61.3389 62.5865 61.3991 62.2919C63.9599 51.1589 76.523 45.4745 81.9459 43.8841Z" fill="url(#paint2_linear_58_801)"/>
<path opacity="0.21" d="M41.3948 40.5264L54.6507 54.6636L67.6054 40.5264L54.6507 49.9512L41.3948 40.5264Z" fill="#040019"/>
<path d="M41.6961 38.2291L38.5026 40.8504C11.2375 47.1238 -6.38686 28.8337 2.16925 11.6039C7.68251 0.470831 21.6615 1.44277 21.6615 1.44277C21.6615 1.44277 11.5087 4.56475 10.4542 13.43C9.39976 22.2952 17.2629 30.6598 27.5363 30.6598C38.2013 30.6598 48.3542 23.3555 48.3542 23.3555L52.6322 24.9165H56.368L60.646 23.3555C60.646 23.3555 70.7989 30.6598 81.4639 30.6598C91.7372 30.6598 99.6306 22.2952 98.546 13.43C97.4915 4.56475 87.3387 1.41331 87.3387 1.41331C87.3387 1.41331 101.318 0.470831 106.831 11.6039C115.387 28.8337 97.7627 47.0943 70.5277 40.8504L67.3343 38.2291L54.7712 54.6342L41.6961 38.2291Z" fill="url(#paint3_linear_58_801)"/>
</g>
<defs>
<linearGradient id="paint0_linear_58_801" x1="10.1909" y1="51.0273" x2="38.4918" y2="51.0273" gradientUnits="userSpaceOnUse">
<stop stop-color="#3251FF"/>
<stop offset="1" stop-color="#BD1FFF"/>
</linearGradient>
<linearGradient id="paint1_linear_58_801" x1="70.5304" y1="51.0273" x2="98.8313" y2="51.0273" gradientUnits="userSpaceOnUse">
<stop stop-color="#BD1FFF"/>
<stop offset="1" stop-color="#3251FF"/>
</linearGradient>
<linearGradient id="paint2_linear_58_801" x1="54.4992" y1="85.5858" x2="54.4992" y2="40.5522" gradientUnits="userSpaceOnUse">
<stop stop-color="#FF505D"/>
<stop offset="0.229167" stop-color="#E23BA3"/>
<stop offset="0.411458" stop-color="#BD1FFF"/>
<stop offset="1" stop-color="#3251FF"/>
</linearGradient>
<linearGradient id="paint3_linear_58_801" x1="54.5006" y1="54.6348" x2="54.5006" y2="1.41332" gradientUnits="userSpaceOnUse">
<stop stop-color="#35006D"/>
<stop offset="0.0332901" stop-color="#340E86"/>
<stop offset="0.0975" stop-color="#3426B1"/>
<stop offset="0.1598" stop-color="#3339D3"/>
<stop offset="0.2188" stop-color="#3246EB"/>
<stop offset="0.2731" stop-color="#324EFA"/>
<stop offset="0.3184" stop-color="#3251FF"/>
<stop offset="0.6579" stop-color="#6F3BFF"/>
<stop offset="0.9972" stop-color="#A827FF"/>
</linearGradient>
<clipPath id="clip0_58_801">
<rect width="109" height="106" fill="white"/>
</clipPath>
</defs>
</svg>
