<svg width="88" height="150" viewBox="0 0 88 150" fill="none" xmlns="http://www.w3.org/2000/svg">
<mask id="mask0_55_797" style="mask-type:alpha" maskUnits="userSpaceOnUse" x="0" y="27" width="88" height="96">
<path d="M36.0959 29.491C40.9973 26.7061 47.0027 26.7061 51.9042 29.491L79.9042 45.4001C84.9085 48.2435 88 53.5557 88 59.3114V90.6886C88 96.4443 84.9085 101.757 79.9042 104.6L51.9042 120.509C47.0027 123.294 40.9973 123.294 36.0959 120.509L8.09585 104.6C3.09149 101.757 0 96.4443 0 90.6886V59.3114C0 53.5557 3.09149 48.2435 8.09585 45.4001L36.0959 29.491Z" fill="#D9D9D9"/>
</mask>
<g mask="url(#mask0_55_797)">
<path d="M0 50L44 75V125L0 100V50Z" fill="url(#paint0_linear_55_797)"/>
<path d="M88 50L44 75V125L88 100V50Z" fill="url(#paint1_linear_55_797)"/>
<path d="M0 50L44 25L88 50L44 75L0 50Z" fill="url(#paint2_linear_55_797)"/>
</g>
<path d="M51.1995 86.8636C51.1995 87.165 51.0731 87.4541 50.848 87.6672C50.6229 87.8803 50.3177 88 49.9994 88H28.3975C28.0793 88 27.774 87.8803 27.5489 87.6672C27.3239 87.4541 27.1974 87.165 27.1974 86.8636C27.1974 86.5623 27.3239 86.2732 27.5489 86.0601C27.774 85.847 28.0793 85.7273 28.3975 85.7273H49.9994C50.3177 85.7273 50.6229 85.847 50.848 86.0601C51.0731 86.2732 51.1995 86.5623 51.1995 86.8636ZM61.9794 69.4136C61.948 69.5717 61.8815 69.7218 61.7842 69.8537C61.687 69.9857 61.5613 70.0967 61.4154 70.1792L39.302 82.679C38.3802 83.1909 37.3313 83.4615 36.2627 83.4631C34.7406 83.4615 33.2766 82.9091 32.1704 81.9191L32.1524 81.9021L26.7474 76.8922C26.4614 76.635 26.2468 76.3151 26.1224 75.9608C25.9981 75.6064 25.9679 75.2285 26.0345 74.8604C26.1011 74.4924 26.2624 74.1455 26.5042 73.8505C26.746 73.5556 27.0609 73.3215 27.421 73.1692L27.871 72.9604C28.1552 72.8283 28.483 72.8079 28.7831 72.9036L33.0224 74.2587L36.0482 72.5257L32.7734 69.5158C32.4789 69.2589 32.257 68.9363 32.1278 68.5774C31.9987 68.2185 31.9664 67.8347 32.0339 67.461C32.1015 67.0872 32.2667 66.7355 32.5145 66.4376C32.7624 66.1398 33.085 65.9055 33.453 65.7559L33.501 65.7375L34.5736 65.3525C34.844 65.257 35.1417 65.257 35.4121 65.3525L43.5038 68.1678L51.24 63.7957C52.4728 63.101 53.9285 62.8495 55.341 63.0874C56.7535 63.3253 58.0284 64.0365 58.9326 65.0912L58.9506 65.1125L61.7469 68.5059C61.8513 68.633 61.9261 68.7796 61.9662 68.9361C62.0063 69.0925 62.0108 69.2553 61.9794 69.4136ZM59.0182 68.888L57.068 66.5201C56.5252 65.8914 55.7622 65.4679 54.9176 65.3266C54.0731 65.1854 53.203 65.3357 52.4656 65.7502L44.2449 70.3979C44.0909 70.4844 43.9186 70.5374 43.7404 70.5531C43.5622 70.5688 43.3825 70.5469 43.2143 70.4888L34.9981 67.6281L34.3981 67.8454L34.4296 67.8738L38.8339 71.9206C38.9655 72.0416 39.066 72.1896 39.1277 72.3531C39.1894 72.5167 39.2108 72.6914 39.19 72.864C39.1693 73.0365 39.1071 73.2023 39.0082 73.3485C38.9093 73.4947 38.7763 73.6176 38.6194 73.7075L33.7875 76.476C33.638 76.5615 33.4707 76.615 33.2971 76.6329C33.1235 76.6508 32.9478 76.6327 32.7824 76.5797L28.4816 75.2061L28.4531 75.2203L28.3975 75.2445C28.4048 75.2493 28.4113 75.2551 28.417 75.2615L33.8175 80.27C34.3811 80.7715 35.1012 81.0865 35.8698 81.168C36.6384 81.2494 37.4142 81.0928 38.0809 80.7217L59.0182 68.888Z" fill="white"/>
<rect x="43" y="122" width="2" height="28" fill="url(#paint3_linear_55_797)"/>
<rect x="43" width="2" height="28" fill="url(#paint4_linear_55_797)"/>
<defs>
<linearGradient id="paint0_linear_55_797" x1="44" y1="75" x2="1.88462e-06" y2="100" gradientUnits="userSpaceOnUse">
<stop offset="0.119792" stop-color="#3B52FF"/>
<stop offset="1" stop-color="#6EE6FD"/>
</linearGradient>
<linearGradient id="paint1_linear_55_797" x1="44" y1="75" x2="88" y2="100" gradientUnits="userSpaceOnUse">
<stop offset="0.130208" stop-color="#3B52FF"/>
<stop offset="1" stop-color="#6DE4FD"/>
</linearGradient>
<linearGradient id="paint2_linear_55_797" x1="44" y1="25" x2="44" y2="75" gradientUnits="userSpaceOnUse">
<stop stop-color="#6EE8FC"/>
<stop offset="0.916667" stop-color="#3B52FF"/>
</linearGradient>
<linearGradient id="paint3_linear_55_797" x1="44" y1="122" x2="44" y2="150" gradientUnits="userSpaceOnUse">
<stop stop-color="#4F8BFF"/>
<stop offset="1" stop-color="white" stop-opacity="0"/>
</linearGradient>
<linearGradient id="paint4_linear_55_797" x1="44" y1="0" x2="44" y2="28" gradientUnits="userSpaceOnUse">
<stop stop-color="white" stop-opacity="0"/>
<stop offset="1" stop-color="#6CE0FD"/>
</linearGradient>
</defs>
</svg>
