<svg width="88" height="150" viewBox="0 0 88 150" fill="none" xmlns="http://www.w3.org/2000/svg">
<mask id="mask0_55_798" style="mask-type:alpha" maskUnits="userSpaceOnUse" x="0" y="27" width="88" height="96">
<path d="M36.0959 29.491C40.9973 26.7061 47.0027 26.7061 51.9042 29.491L79.9042 45.4001C84.9085 48.2435 88 53.5557 88 59.3114V90.6886C88 96.4443 84.9085 101.757 79.9042 104.6L51.9042 120.509C47.0027 123.294 40.9973 123.294 36.0959 120.509L8.09585 104.6C3.09149 101.757 0 96.4443 0 90.6886V59.3114C0 53.5557 3.09149 48.2435 8.09585 45.4001L36.0959 29.491Z" fill="#D9D9D9"/>
</mask>
<g mask="url(#mask0_55_798)">
<path d="M0 50L44 75V125L0 100V50Z" fill="url(#paint0_linear_55_798)"/>
<path d="M88 50L44 75V125L88 100V50Z" fill="url(#paint1_linear_55_798)"/>
<path d="M0 50L44 25L88 50L44 75L0 50Z" fill="url(#paint2_linear_55_798)"/>
</g>
<path d="M58.5714 62H50.6027C50.2676 62.0002 49.9361 62.0679 49.6292 62.1988C49.3222 62.3297 49.0465 62.5211 48.8192 62.7608L34.9688 77.3636H29.4286C28.7845 77.3636 28.1668 77.6127 27.7113 78.0559C27.2559 78.4992 27 79.1004 27 79.7273V85.6364C27 86.2632 27.2559 86.8644 27.7113 87.3077C28.1668 87.751 28.7845 88 29.4286 88H37.3973C37.7324 87.9998 38.0639 87.9321 38.3708 87.8012C38.6778 87.6703 38.9535 87.4789 39.1808 87.2392L53.0312 72.6364H58.5714C59.2155 72.6364 59.8332 72.3873 60.2887 71.9441C60.7441 71.5008 61 70.8996 61 70.2727V64.3636C61 63.7368 60.7441 63.1356 60.2887 62.6923C59.8332 62.249 59.2155 62 58.5714 62ZM58.5714 70.2727H53.0312C52.6961 70.2729 52.3647 70.3406 52.0577 70.4715C51.7508 70.6025 51.475 70.7938 51.2478 71.0335L37.3973 85.6364H29.4286V79.7273H34.9688C35.3039 79.7271 35.6353 79.6594 35.9423 79.5285C36.2492 79.3975 36.525 79.2062 36.7522 78.9665L50.6027 64.3636H58.5714V70.2727ZM59.4305 81.2548C59.5434 81.3646 59.6328 81.4949 59.6939 81.6384C59.755 81.7819 59.7864 81.9356 59.7864 82.0909C59.7864 82.2462 59.755 82.4 59.6939 82.5434C59.6328 82.6869 59.5434 82.8172 59.4305 82.927C59.3177 83.0368 59.1838 83.1239 59.0364 83.1834C58.889 83.2428 58.731 83.2734 58.5714 83.2734C58.4119 83.2734 58.2539 83.2428 58.1065 83.1834C57.9591 83.1239 57.8251 83.0368 57.7123 82.927L56.1429 81.3981V86.8182C56.1429 87.1316 56.0149 87.4322 55.7872 87.6539C55.5595 87.8755 55.2506 88 54.9286 88C54.6065 88 54.2977 87.8755 54.0699 87.6539C53.8422 87.4322 53.7143 87.1316 53.7143 86.8182V81.3981L52.1448 82.927C51.917 83.1488 51.6079 83.2734 51.2857 83.2734C50.9635 83.2734 50.6545 83.1488 50.4266 82.927C50.1988 82.7053 50.0708 82.4045 50.0708 82.0909C50.0708 81.7773 50.1988 81.4765 50.4266 81.2548L54.0695 77.7093C54.1822 77.5994 54.3162 77.5123 54.4636 77.4528C54.611 77.3933 54.769 77.3627 54.9286 77.3627C55.0881 77.3627 55.2462 77.3933 55.3936 77.4528C55.541 77.5123 55.6749 77.5994 55.7877 77.7093L59.4305 81.2548Z" fill="white"/>
<rect x="43" width="2" height="28" fill="url(#paint3_linear_55_798)"/>
<rect x="43" y="122" width="2" height="28" fill="url(#paint4_linear_55_798)"/>
<defs>
<linearGradient id="paint0_linear_55_798" x1="44" y1="75" x2="1.88462e-06" y2="100" gradientUnits="userSpaceOnUse">
<stop offset="0.119792" stop-color="#3B52FF"/>
<stop offset="1" stop-color="#6EE6FD"/>
</linearGradient>
<linearGradient id="paint1_linear_55_798" x1="44" y1="75" x2="88" y2="100" gradientUnits="userSpaceOnUse">
<stop offset="0.130208" stop-color="#3B52FF"/>
<stop offset="1" stop-color="#6DE4FD"/>
</linearGradient>
<linearGradient id="paint2_linear_55_798" x1="44" y1="25" x2="44" y2="75" gradientUnits="userSpaceOnUse">
<stop stop-color="#6EE8FC"/>
<stop offset="0.916667" stop-color="#3B52FF"/>
</linearGradient>
<linearGradient id="paint3_linear_55_798" x1="44" y1="0" x2="44" y2="28" gradientUnits="userSpaceOnUse">
<stop stop-color="white" stop-opacity="0"/>
<stop offset="1" stop-color="#6CE0FD"/>
</linearGradient>
<linearGradient id="paint4_linear_55_798" x1="44" y1="122" x2="44" y2="150" gradientUnits="userSpaceOnUse">
<stop stop-color="#4F8BFF"/>
<stop offset="1" stop-color="white" stop-opacity="0"/>
</linearGradient>
</defs>
</svg>
