<svg width="38" height="38" viewBox="0 0 38 38" fill="none" xmlns="http://www.w3.org/2000/svg">
<circle cx="19" cy="19" r="19" fill="#383838"/>
<path d="M10 24.2727C11.6847 25.3636 13.7438 26 15.9901 26C23.197 26 27.3153 20.0909 27.0345 14.7273C27.7833 14.1818 28.4384 13.5455 29 12.8182C28.3448 13.0909 27.5961 13.3636 26.7537 13.4545C27.5961 13 28.1576 12.2727 28.4384 11.3636C27.6897 11.8182 26.8473 12.0909 26.0049 12.2727C25.2562 11.4545 24.2266 11 23.1034 11C20.67 11 18.798 13.2727 19.3596 15.6364C16.0837 15.4545 13.2759 14 11.3103 11.7273C10.2808 13.3636 10.7488 15.6364 12.5271 16.7273C11.8719 16.7273 11.3103 16.5455 10.7488 16.2727C10.7488 18 11.9655 19.6364 13.8374 20C13.2759 20.1818 12.7143 20.1818 12.0591 20.0909C12.5271 21.6364 14.0246 22.7273 15.7094 22.7273C14.1182 24 12.0591 24.5455 10 24.2727Z" fill="#9A9DA7"/>
</svg>
