<svg width="162" height="26" viewBox="0 0 162 26" fill="none" xmlns="http://www.w3.org/2000/svg">
<path d="M12.1033 1.81699C12.4701 1.07374 13.5299 1.07374 13.8967 1.81699L16.5879 7.26995C16.7336 7.56509 17.0152 7.76966 17.3409 7.81699L23.3586 8.69141C24.1788 8.8106 24.5063 9.81857 23.9128 10.3971L19.5583 14.6416C19.3227 14.8714 19.2151 15.2024 19.2707 15.5268L20.2987 21.5202C20.4388 22.3371 19.5814 22.96 18.8477 22.5743L13.4653 19.7446C13.174 19.5915 12.826 19.5915 12.5347 19.7446L7.15226 22.5743C6.41864 22.96 5.5612 22.3371 5.70131 21.5202L6.72926 15.5268C6.7849 15.2024 6.67735 14.8714 6.44166 14.6416L2.08721 10.3971C1.4937 9.81857 1.82121 8.8106 2.64143 8.69141L8.65913 7.81699C8.98484 7.76966 9.2664 7.56509 9.41207 7.26995L12.1033 1.81699Z" fill="#3B52FF"/>
<path d="M46.1033 1.81699C46.4701 1.07374 47.5299 1.07374 47.8967 1.81699L50.5879 7.26995C50.7336 7.56509 51.0152 7.76966 51.3409 7.81699L57.3586 8.69141C58.1788 8.8106 58.5063 9.81857 57.9128 10.3971L53.5583 14.6416C53.3227 14.8714 53.2151 15.2024 53.2707 15.5268L54.2987 21.5202C54.4388 22.3371 53.5814 22.96 52.8477 22.5743L47.4653 19.7446C47.174 19.5915 46.826 19.5915 46.5347 19.7446L41.1523 22.5743C40.4186 22.96 39.5612 22.3371 39.7013 21.5202L40.7293 15.5268C40.7849 15.2024 40.6774 14.8714 40.4417 14.6416L36.0872 10.3971C35.4937 9.81857 35.8212 8.8106 36.6414 8.69141L42.6591 7.81699C42.9848 7.76966 43.2664 7.56509 43.4121 7.26995L46.1033 1.81699Z" fill="#3B52FF"/>
<path d="M80.1033 1.81699C80.4701 1.07374 81.5299 1.07374 81.8967 1.81699L84.5879 7.26995C84.7336 7.56509 85.0152 7.76966 85.3409 7.81699L91.3586 8.69141C92.1788 8.8106 92.5063 9.81857 91.9128 10.3971L87.5583 14.6416C87.3227 14.8714 87.2151 15.2024 87.2707 15.5268L88.2987 21.5202C88.4388 22.3371 87.5814 22.96 86.8477 22.5743L81.4653 19.7446C81.174 19.5915 80.826 19.5915 80.5347 19.7446L75.1523 22.5743C74.4186 22.96 73.5612 22.3371 73.7013 21.5202L74.7293 15.5268C74.7849 15.2024 74.6774 14.8714 74.4417 14.6416L70.0872 10.3971C69.4937 9.81857 69.8212 8.8106 70.6414 8.69141L76.6591 7.81699C76.9848 7.76966 77.2664 7.56509 77.4121 7.26995L80.1033 1.81699Z" fill="#3B52FF"/>
<path d="M114.103 1.81699C114.47 1.07374 115.53 1.07374 115.897 1.81699L118.588 7.26995C118.734 7.56509 119.015 7.76966 119.341 7.81699L125.359 8.69141C126.179 8.8106 126.506 9.81857 125.913 10.3971L121.558 14.6416C121.323 14.8714 121.215 15.2024 121.271 15.5268L122.299 21.5202C122.439 22.3371 121.581 22.96 120.848 22.5743L115.465 19.7446C115.174 19.5915 114.826 19.5915 114.535 19.7446L109.152 22.5743C108.419 22.96 107.561 22.3371 107.701 21.5202L108.729 15.5268C108.785 15.2024 108.677 14.8714 108.442 14.6416L104.087 10.3971C103.494 9.81857 103.821 8.8106 104.641 8.69141L110.659 7.81699C110.985 7.76966 111.266 7.56509 111.412 7.26995L114.103 1.81699Z" fill="#3B52FF"/>
<path d="M148.103 1.81699C148.47 1.07374 149.53 1.07374 149.897 1.81699L152.588 7.26995C152.734 7.56509 153.015 7.76966 153.341 7.81699L159.359 8.69141C160.179 8.8106 160.506 9.81857 159.913 10.3971L155.558 14.6416C155.323 14.8714 155.215 15.2024 155.271 15.5268L156.299 21.5202C156.439 22.3371 155.581 22.96 154.848 22.5743L149.465 19.7446C149.174 19.5915 148.826 19.5915 148.535 19.7446L143.152 22.5743C142.419 22.96 141.561 22.3371 141.701 21.5202L142.729 15.5268C142.785 15.2024 142.677 14.8714 142.442 14.6416L138.087 10.3971C137.494 9.81857 137.821 8.8106 138.641 8.69141L144.659 7.81699C144.985 7.76966 145.266 7.56509 145.412 7.26995L148.103 1.81699Z" fill="#3B52FF"/>
</svg>
