<svg width="38" height="38" viewBox="0 0 38 38" fill="none" xmlns="http://www.w3.org/2000/svg">
<circle cx="19" cy="19" r="19" fill="#383838"/>
<path d="M9.35953 18.7172L13.554 20.3047L15.112 25.5556C15.2319 25.9219 15.5914 26.044 15.8311 25.7998L18.1081 23.846C18.3478 23.6017 18.7073 23.6017 18.947 23.846L23.1415 26.8988C23.3812 27.1431 23.8606 26.8988 23.8606 26.6546L26.9765 11.6345C27.0963 11.2682 26.7368 10.9018 26.3773 11.024L9.35953 17.7403C8.88016 17.8624 8.88016 18.4729 9.35953 18.7172ZM14.8723 19.4499L23.0217 14.321C23.1415 14.1989 23.2614 14.4432 23.1415 14.5653L16.4303 20.9152C16.1906 21.1595 16.0708 21.4037 15.9509 21.77L15.7112 23.4796C15.7112 23.7239 15.3517 23.7239 15.3517 23.4796L14.5128 20.3047C14.3929 20.0604 14.5128 19.572 14.8723 19.4499Z" fill="#9A9DA7"/>
</svg>
