<svg width="28" height="24" viewBox="0 0 28 24" fill="none" xmlns="http://www.w3.org/2000/svg">
<path d="M12.965 23.0194L0 9.94552V2.97276C0 0.357973 3.15953 -0.94942 5.01167 0.90272L21.0272 16.9183L15.035 22.9105C14.4903 23.5642 13.5097 23.5642 12.965 23.0194Z" fill="#3C53FF"/>
<path d="M22.3346 15.5019L28 9.94552V2.97276C28 0.357973 24.8405 -0.94942 22.9883 0.90272L15.2529 8.52918L22.3346 15.5019Z" fill="#3C53FF"/>
<path d="M0 21.0584V12.8872L8.607 21.4942C9.4786 22.4747 8.8249 24 7.62646 24H2.94163C1.30739 24 0 22.6926 0 21.0584Z" fill="#3C53FF"/>
<path d="M28 21.0584V12.8872L19.393 21.4942C18.5214 22.4747 19.1751 24 20.4825 24H25.0583C26.6926 24 28 22.6926 28 21.0584Z" fill="#3C53FF"/>
</svg>
