<svg width="173" height="34" viewBox="0 0 173 34" fill="none" xmlns="http://www.w3.org/2000/svg">
<path d="M17.5364 32.5364L0 14.8267V5.38152C0 1.83958 4.27357 0.068608 6.77877 2.57748L28.4414 24.2719L20.3363 32.3888C19.5995 33.2743 18.2732 33.2743 17.5364 32.5364Z" fill="#3C53FF"/>
<path d="M30.2098 22.3533L37.8728 14.8267V5.38152C37.8728 1.83958 33.5992 0.0686079 31.094 2.57748L20.6311 12.9081L30.2098 22.3533Z" fill="#3C53FF"/>
<path d="M0 29.8801V18.8115L11.6418 30.4704C12.8207 31.7986 11.9365 33.8648 10.3155 33.8648H3.97884C1.76838 33.8648 0 32.0938 0 29.8801Z" fill="#3C53FF"/>
<path d="M37.8727 29.8801V18.8115L26.2309 30.4704C25.052 31.7986 25.9362 33.8648 27.7045 33.8648H33.8938C36.1043 33.8648 37.8727 32.0938 37.8727 29.8801Z" fill="#3C53FF"/>
<path d="M165.017 18.6929C168.533 19.3701 173.132 21.1311 172.997 26.2785C172.997 28.7168 172.05 30.6132 170.292 31.9678C168.533 33.3223 166.234 33.9996 163.393 33.9996C158.524 33.9996 155.143 32.1032 153.384 28.3104L158.795 25.3303C159.471 27.3622 161.094 28.4458 163.529 28.4458C165.693 28.4458 166.91 27.7686 166.91 26.414C166.91 25.0594 165.017 24.3821 162.582 23.7048C159.065 22.7566 154.602 21.2666 154.602 16.2546C154.602 13.9518 155.548 12.0554 157.172 10.7008C158.93 9.34624 161.094 8.66895 163.664 8.66895C167.587 8.66895 170.833 10.4299 172.726 13.8164L167.451 16.661C166.64 15.0355 165.422 14.2227 163.664 14.2227C162.041 14.2227 160.959 15.0355 160.959 16.2546C160.688 17.3383 162.582 18.0156 165.017 18.6929Z" fill="white"/>
<path d="M143.105 26.279L141.887 28.04L145.269 32.9165H152.437L145.539 22.8926L143.105 26.279Z" fill="white"/>
<path d="M145.539 19.3696L152.573 9.3457H145.404L141.887 14.3577L143.105 15.9832L145.539 19.3696Z" fill="white"/>
<path d="M140.805 15.9832L136.071 9.3457H128.902L137.153 21.1306L129.038 32.78H136.206L140.805 26.278L144.322 21.1306L140.805 15.9832Z" fill="white"/>
<path d="M88.7302 18.2865V32.645H82.6435V18.6929C82.6435 15.8482 81.1557 14.2227 78.721 14.2227C76.0158 14.2227 74.3927 16.1191 74.3927 19.5056V32.645H68.4413V18.6929C68.4413 15.8482 66.9534 14.2227 64.5187 14.2227C61.8136 14.2227 60.1904 16.1191 60.1904 19.5056V32.645H54.1038V9.34624H60.0552V11.7845C61.4078 9.61715 63.5719 8.66895 66.5476 8.66895C69.3881 8.66895 71.5523 9.75261 72.9048 12.0554C74.3927 9.88807 76.8274 8.66895 79.8031 8.66895C85.3487 8.66895 88.7302 12.4618 88.7302 18.2865Z" fill="white"/>
<path d="M96.8462 7.17928C98.8753 7.17928 100.634 5.55379 100.634 3.65737C100.634 1.6255 99.0105 0 96.8462 0C94.8171 0 93.1938 1.6255 93.1938 3.65737C93.1938 5.55379 94.8171 7.17928 96.8462 7.17928Z" fill="#3C53FF"/>
<path d="M99.9573 9.3457H94.0054V32.6445H99.9573V9.3457Z" fill="white"/>
<path d="M110.507 23.4339C111.319 26.414 113.483 27.7686 117.135 27.7686C119.434 27.7686 121.193 26.9558 122.275 25.4658L127.144 28.3104C124.845 31.6968 121.463 33.3223 117 33.3223C113.077 33.3223 110.101 32.1032 107.667 29.8004C105.367 27.4976 104.15 24.5176 104.15 20.9956C104.15 17.4737 105.367 14.6291 107.531 12.1909C109.831 9.75261 112.807 8.66895 116.323 8.66895C119.705 8.66895 122.545 9.88807 124.709 12.1909C126.874 14.6291 128.091 17.4737 128.091 20.9956C128.091 21.8084 127.956 22.6211 127.82 23.4339H110.507ZM122.275 18.6929C121.598 15.5773 119.299 13.9518 116.459 13.9518C113.212 13.9518 111.048 15.7128 110.372 18.6929H122.275Z" fill="white"/>
</svg>
