<svg width="38" height="38" viewBox="0 0 38 38" fill="none" xmlns="http://www.w3.org/2000/svg">
<circle cx="19" cy="19" r="19" fill="#383838"/>
<path d="M27.6419 14.4497C27.4643 13.5833 26.8131 12.9645 26.0434 12.717C24.6818 12.3457 18.9985 12.3457 18.9985 12.3457C18.9985 12.3457 13.3745 12.3457 11.9536 12.717C11.184 12.9645 10.592 13.5833 10.3552 14.4497C10 15.873 10 18.9671 10 18.9671C10 18.9671 10 22.0612 10.3552 23.5463C10.592 24.3508 11.184 25.0315 11.9536 25.2172C13.3745 25.5884 18.9985 25.5884 18.9985 25.5884C18.9985 25.5884 24.6226 25.5884 26.0434 25.2172C26.8131 24.9696 27.4051 24.3508 27.6419 23.5463C27.9971 22.0612 27.9971 18.9671 27.9971 18.9671C27.9971 18.9671 28.0563 15.873 27.6419 14.4497Z" fill="#9A9DA7"/>
<path d="M17.1633 21.8139V16.1826L21.8994 18.9673L17.1633 21.8139Z" fill="#383838"/>
</svg>
