<svg width="38" height="38" viewBox="0 0 38 38" fill="none" xmlns="http://www.w3.org/2000/svg">
<circle cx="19" cy="19" r="19" fill="#383838"/>
<path d="M25.0785 13.0716C24.1951 12.679 23.2844 12.3426 22.341 12.1463C21.3648 11.9444 21.6266 11.8098 21.1739 12.7407C21.0921 12.909 21.0267 12.9707 20.8304 12.9426C19.707 12.7912 18.5836 12.7688 17.4602 12.909C16.9531 12.9707 16.9531 12.965 16.7295 12.4884C16.6913 12.4043 16.6422 12.3257 16.6095 12.236C16.5386 12.0341 16.4187 11.9781 16.2114 12.0229C15.0826 12.2472 13.9919 12.5949 12.9394 13.0716C12.8086 13.1277 12.7158 13.2118 12.634 13.3352C10.9272 15.9821 9.98919 18.8701 10.0001 22.061C10.0055 22.5377 10.011 23.0143 10.0546 23.491C10.0655 23.6088 10.0928 23.7041 10.191 23.777C11.4998 24.7416 12.9176 25.4874 14.4555 25.9809C14.5918 26.0258 14.6681 25.9921 14.7499 25.8744C15.0281 25.4706 15.2789 25.0444 15.5134 24.6126C15.5952 24.4612 15.5788 24.3883 15.4098 24.3266C15.0444 24.192 14.6899 24.0125 14.3518 23.8107C14.2755 23.7658 14.1064 23.7378 14.1555 23.6312C14.221 23.5022 14.3409 23.3732 14.5264 23.4125C14.5863 23.4237 14.6409 23.463 14.7009 23.4854C17.5802 24.7303 20.4541 24.7303 23.328 23.4686C23.3607 23.4518 23.3934 23.4405 23.4262 23.4237C23.6279 23.334 23.7588 23.4966 23.8297 23.6144C23.9006 23.7321 23.7152 23.7658 23.6334 23.8107C23.3007 24.0069 22.9572 24.1752 22.5973 24.3098C22.4009 24.3827 22.4009 24.4668 22.4882 24.635C22.7009 25.0276 22.9354 25.4033 23.1753 25.779C23.2953 25.9697 23.4153 26.0202 23.6388 25.9416C25.1058 25.4425 26.4746 24.736 27.7343 23.8163C27.8652 23.7209 27.9252 23.62 27.9415 23.4518C28.2469 19.7506 27.3526 16.3802 25.3457 13.3071C25.2912 13.2006 25.1985 13.1277 25.0785 13.0716ZM17.6238 19.8852C17.5202 20.7432 17.0185 21.3656 16.315 21.5226C16.2169 21.5451 16.1187 21.5507 16.0915 21.5563C15.1698 21.5563 14.4773 20.8273 14.3955 19.8515C14.3137 18.8197 15.0444 17.8888 15.966 17.8663C16.9585 17.8383 17.7602 18.8197 17.6238 19.8852ZM23.0226 21.1357C22.5373 21.6012 21.8283 21.7021 21.2612 21.3544C20.6068 20.9506 20.3287 20.317 20.3887 19.5543C20.4487 18.8028 20.7922 18.2308 21.5121 17.9504C21.6647 17.8888 21.8283 17.8607 21.9919 17.8663C22.6191 17.8831 23.0772 18.1916 23.3771 18.7468C23.8024 19.515 23.6388 20.5413 23.0226 21.1357Z" fill="#9A9DA7"/>
</svg>
