<svg width="128" height="26" viewBox="0 0 128 26" fill="none" xmlns="http://www.w3.org/2000/svg">
<path d="M12.965 24.0194L0 10.9455V3.97276C0 1.35797 3.15953 0.0505799 5.01167 1.90272L21.0272 17.9183L15.035 23.9105C14.4903 24.5642 13.5097 24.5642 12.965 24.0194Z" fill="#3C53FF"/>
<path d="M22.3346 16.5019L28 10.9455V3.97276C28 1.35797 24.8405 0.0505799 22.9883 1.90272L15.2529 9.52918L22.3346 16.5019Z" fill="#3C53FF"/>
<path d="M0 22.0584V13.8872L8.607 22.4942C9.4786 23.4747 8.8249 25 7.62646 25H2.94163C1.30739 25 0 23.6926 0 22.0584Z" fill="#3C53FF"/>
<path d="M28 22.0584V13.8872L19.393 22.4942C18.5214 23.4747 19.1751 25 20.4825 25H25.0583C26.6926 25 28 23.6926 28 22.0584Z" fill="#3C53FF"/>
<path d="M122 13.8C124.6 14.3 128 15.6 127.9 19.4C127.9 21.2 127.2 22.6 125.9 23.6C124.6 24.6 122.9 25.1 120.8 25.1C117.2 25.1 114.7 23.7 113.4 20.9L117.4 18.7C117.9 20.2 119.1 21 120.9 21C122.5 21 123.4 20.5 123.4 19.5C123.4 18.5 122 18 120.2 17.5C117.6 16.8 114.3 15.7 114.3 12C114.3 10.3 115 8.89999 116.2 7.89999C117.5 6.89999 119.1 6.39999 121 6.39999C123.9 6.39999 126.3 7.69999 127.7 10.2L123.8 12.3C123.2 11.1 122.3 10.5 121 10.5C119.8 10.5 119 11.1 119 12C118.8 12.8 120.2 13.3 122 13.8Z" fill="#0B1223"/>
<path d="M105.8 19.4L104.9 20.7L107.4 24.3H112.7L107.6 16.9L105.8 19.4Z" fill="#0B1223"/>
<path d="M107.6 14.3L112.8 6.89999H107.5L104.9 10.6L105.8 11.8L107.6 14.3Z" fill="#0B1223"/>
<path d="M104.1 11.8L100.6 6.89999H95.3L101.4 15.6L95.4001 24.2H100.7L104.1 19.4L106.7 15.6L104.1 11.8Z" fill="#0B1223"/>
<path d="M65.6 13.5V24.1H61.1V13.8C61.1 11.7 60 10.5 58.2 10.5C56.2 10.5 55 11.9 55 14.4V24.1H50.6V13.8C50.6 11.7 49.5 10.5 47.7 10.5C45.7 10.5 44.5 11.9 44.5 14.4V24.1H40V6.89999H44.4V8.69999C45.4 7.09999 47 6.39999 49.2 6.39999C51.3 6.39999 52.9 7.19999 53.9 8.89999C55 7.29999 56.8 6.39999 59 6.39999C63.1 6.39999 65.6 9.19999 65.6 13.5Z" fill="#0B1223"/>
<path d="M71.5999 5.3C73.0999 5.3 74.3999 4.1 74.3999 2.7C74.3999 1.2 73.1999 0 71.5999 0C70.0999 0 68.8999 1.2 68.8999 2.7C68.8999 4.1 70.0999 5.3 71.5999 5.3Z" fill="#3C53FF"/>
<path d="M73.9 6.89999H69.5V24.1H73.9V6.89999Z" fill="#0B1223"/>
<path d="M81.7 17.3C82.3 19.5 83.9 20.5 86.6 20.5C88.3 20.5 89.6 19.9 90.4 18.8L94 20.9C92.3 23.4 89.8 24.6 86.5 24.6C83.6 24.6 81.4 23.7 79.6 22C77.9 20.3 77 18.1 77 15.5C77 12.9 77.9 10.8 79.5 8.99999C81.2 7.19999 83.4 6.39999 86 6.39999C88.5 6.39999 90.6 7.29999 92.2 8.99999C93.8 10.8 94.7 12.9 94.7 15.5C94.7 16.1 94.6 16.7 94.5 17.3H81.7ZM90.4 13.8C89.9 11.5 88.2 10.3 86.1 10.3C83.7 10.3 82.1 11.6 81.6 13.8H90.4Z" fill="#0B1223"/>
</svg>
