<svg width="241" height="32" viewBox="0 0 241 32" fill="none" xmlns="http://www.w3.org/2000/svg">
<path d="M12.965 24.0194L0 10.9455V3.97276C0 1.35797 3.15953 0.0505799 5.01167 1.90272L21.0272 17.9183L15.035 23.9105C14.4903 24.5642 13.5097 24.5642 12.965 24.0194Z" fill="#3C53FF"/>
<path d="M22.3346 16.5019L28 10.9455V3.97276C28 1.35797 24.8405 0.0505799 22.9883 1.90272L15.2529 9.52918L22.3346 16.5019Z" fill="#3C53FF"/>
<path d="M0 22.0584V13.8872L8.607 22.4942C9.4786 23.4747 8.8249 25 7.62646 25H2.94163C1.30739 25 0 23.6926 0 22.0584Z" fill="#3C53FF"/>
<path d="M28 22.0584V13.8872L19.393 22.4942C18.5214 23.4747 19.1751 25 20.4825 25H25.0583C26.6926 25 28 23.6926 28 22.0584Z" fill="#3C53FF"/>
<path d="M122 13.8C124.6 14.3 128 15.6 127.9 19.4C127.9 21.2 127.2 22.6 125.9 23.6C124.6 24.6 122.9 25.1 120.8 25.1C117.2 25.1 114.7 23.7 113.4 20.9L117.4 18.7C117.9 20.2 119.1 21 120.9 21C122.5 21 123.4 20.5 123.4 19.5C123.4 18.5 122 18 120.2 17.5C117.6 16.8 114.3 15.7 114.3 12C114.3 10.3 115 8.89999 116.2 7.89999C117.5 6.89999 119.1 6.39999 121 6.39999C123.9 6.39999 126.3 7.69999 127.7 10.2L123.8 12.3C123.2 11.1 122.3 10.5 121 10.5C119.8 10.5 119 11.1 119 12C118.8 12.8 120.2 13.3 122 13.8Z" fill="#0B1223"/>
<path d="M105.8 19.4L104.9 20.7L107.4 24.3H112.7L107.6 16.9L105.8 19.4Z" fill="#0B1223"/>
<path d="M107.6 14.3L112.8 6.89999H107.5L104.9 10.6L105.8 11.8L107.6 14.3Z" fill="#0B1223"/>
<path d="M104.1 11.8L100.6 6.89999H95.2998L101.4 15.6L95.3998 24.2H100.7L104.1 19.4L106.7 15.6L104.1 11.8Z" fill="#0B1223"/>
<path d="M65.6 13.5V24.1H61.1V13.8C61.1 11.7 60 10.5 58.2 10.5C56.2 10.5 55 11.9 55 14.4V24.1H50.6V13.8C50.6 11.7 49.5 10.5 47.7 10.5C45.7 10.5 44.5 11.9 44.5 14.4V24.1H40V6.89999H44.4V8.69999C45.4 7.09999 47 6.39999 49.2 6.39999C51.3 6.39999 52.9 7.19999 53.9 8.89999C55 7.29999 56.8 6.39999 59 6.39999C63.1 6.39999 65.6 9.19999 65.6 13.5Z" fill="#0B1223"/>
<path d="M71.6004 5.3C73.1004 5.3 74.4004 4.1 74.4004 2.7C74.4004 1.2 73.2004 0 71.6004 0C70.1004 0 68.9004 1.2 68.9004 2.7C68.9004 4.1 70.1004 5.3 71.6004 5.3Z" fill="#3C53FF"/>
<path d="M73.9 6.89999H69.5V24.1H73.9V6.89999Z" fill="#0B1223"/>
<path d="M81.7 17.3C82.3 19.5 83.9 20.5 86.6 20.5C88.3 20.5 89.6 19.9 90.4 18.8L94 20.9C92.3 23.4 89.8 24.6 86.5 24.6C83.6 24.6 81.4 23.7 79.6 22C77.9 20.3 77 18.1 77 15.5C77 12.9 77.9 10.8 79.5 8.99999C81.2 7.19999 83.4 6.39999 86 6.39999C88.5 6.39999 90.6 7.29999 92.2 8.99999C93.8 10.8 94.7 12.9 94.7 15.5C94.7 16.1 94.6 16.7 94.5 17.3H81.7ZM90.4 13.8C89.9 11.5 88.2 10.3 86.1 10.3C83.7 10.3 82.1 11.6 81.6 13.8H90.4Z" fill="#0B1223"/>
<path d="M146.396 25.336C143.428 25.336 140.964 24.356 139.032 22.396C137.1 20.436 136.12 18.028 136.12 15.2C136.12 12.372 137.1 9.964 139.032 8.004C140.964 6.044 143.428 5.064 146.396 5.064C150.008 5.064 153.228 6.94 154.88 9.88L153.144 10.888C151.912 8.508 149.308 6.968 146.396 6.968C143.96 6.968 141.944 7.752 140.404 9.348C138.864 10.944 138.08 12.876 138.08 15.2C138.08 17.524 138.864 19.456 140.404 21.052C141.944 22.648 143.96 23.432 146.396 23.432C149.308 23.432 151.912 21.892 153.144 19.512L154.88 20.492C153.284 23.432 150.008 25.336 146.396 25.336ZM169.555 23.236C168.127 24.636 166.391 25.336 164.347 25.336C162.303 25.336 160.539 24.636 159.111 23.236C157.683 21.808 156.983 20.072 156.983 18C156.983 15.928 157.683 14.192 159.111 12.792C160.539 11.364 162.303 10.664 164.347 10.664C166.391 10.664 168.127 11.364 169.555 12.792C170.983 14.192 171.711 15.928 171.711 18C171.711 20.072 170.983 21.808 169.555 23.236ZM160.427 21.948C161.491 23.012 162.807 23.544 164.347 23.544C165.887 23.544 167.203 23.012 168.267 21.948C169.331 20.856 169.863 19.54 169.863 18C169.863 16.46 169.331 15.144 168.267 14.08C167.203 12.988 165.887 12.456 164.347 12.456C162.807 12.456 161.491 12.988 160.427 14.08C159.363 15.144 158.831 16.46 158.831 18C158.831 19.54 159.363 20.856 160.427 21.948ZM181.356 10.664C184.744 10.664 186.844 12.904 186.844 16.404V25H184.996V16.404C184.996 13.912 183.624 12.456 181.188 12.456C178.5 12.456 176.652 14.108 176.652 17.664V25H174.804V11H176.652V13.184C177.688 11.504 179.256 10.664 181.356 10.664ZM191.873 14.668C191.873 15.928 193.161 16.628 194.757 17.048C197.109 17.636 200.049 18.28 200.049 21.304C200.049 22.508 199.573 23.46 198.621 24.216C197.697 24.972 196.465 25.336 194.981 25.336C192.293 25.336 190.333 24.02 189.577 22.116L191.145 21.192C191.677 22.648 193.105 23.544 194.981 23.544C196.801 23.544 198.201 22.844 198.201 21.304C198.201 20.044 196.913 19.344 195.317 18.924C192.965 18.336 190.025 17.692 190.025 14.668C190.025 13.52 190.473 12.568 191.369 11.812C192.293 11.056 193.441 10.664 194.813 10.664C197.081 10.664 198.901 11.756 199.713 13.52L198.173 14.416C197.641 13.1 196.521 12.456 194.813 12.456C193.217 12.456 191.873 13.24 191.873 14.668ZM214.864 23.236C213.436 24.636 211.7 25.336 209.656 25.336C207.612 25.336 205.848 24.636 204.42 23.236C202.992 21.808 202.292 20.072 202.292 18C202.292 15.928 202.992 14.192 204.42 12.792C205.848 11.364 207.612 10.664 209.656 10.664C211.7 10.664 213.436 11.364 214.864 12.792C216.292 14.192 217.02 15.928 217.02 18C217.02 20.072 216.292 21.808 214.864 23.236ZM205.736 21.948C206.8 23.012 208.116 23.544 209.656 23.544C211.196 23.544 212.512 23.012 213.576 21.948C214.64 20.856 215.172 19.54 215.172 18C215.172 16.46 214.64 15.144 213.576 14.08C212.512 12.988 211.196 12.456 209.656 12.456C208.116 12.456 206.8 12.988 205.736 14.08C204.672 15.144 204.14 16.46 204.14 18C204.14 19.54 204.672 20.856 205.736 21.948ZM221.96 25H220.112V4.56H221.96V25ZM232.35 10.664C234.422 10.664 236.102 11.392 237.362 12.876C238.65 14.332 239.294 16.068 239.294 18.056C239.294 18.252 239.266 18.56 239.238 18.924H226.946C227.31 21.752 229.522 23.544 232.518 23.544C234.646 23.544 236.242 22.592 237.026 21.164L238.65 22.116C237.418 24.104 235.206 25.336 232.49 25.336C230.278 25.336 228.486 24.636 227.114 23.264C225.742 21.892 225.042 20.128 225.042 18C225.042 15.9 225.714 14.164 227.086 12.764C228.458 11.364 230.194 10.664 232.35 10.664ZM232.35 12.456C229.438 12.456 227.31 14.36 226.946 17.132H237.39C237.194 15.648 236.634 14.5 235.682 13.688C234.73 12.876 233.61 12.456 232.35 12.456Z" fill="#0B1223"/>
</svg>
