<svg width="88" height="150" viewBox="0 0 88 150" fill="none" xmlns="http://www.w3.org/2000/svg">
<mask id="mask0_55_799" style="mask-type:alpha" maskUnits="userSpaceOnUse" x="0" y="27" width="88" height="96">
<path d="M36.0959 29.491C40.9973 26.7061 47.0027 26.7061 51.9042 29.491L79.9042 45.4001C84.9085 48.2435 88 53.5557 88 59.3114V90.6886C88 96.4443 84.9085 101.757 79.9042 104.6L51.9042 120.509C47.0027 123.294 40.9973 123.294 36.0959 120.509L8.09585 104.6C3.09149 101.757 0 96.4443 0 90.6886V59.3114C0 53.5557 3.09149 48.2435 8.09585 45.4001L36.0959 29.491Z" fill="#D9D9D9"/>
</mask>
<g mask="url(#mask0_55_799)">
<path d="M0 50L44 75V125L0 100V50Z" fill="url(#paint0_linear_55_799)"/>
<path d="M88 50L44 75V125L88 100V50Z" fill="url(#paint1_linear_55_799)"/>
<path d="M0 50L44 25L88 50L44 75L0 50Z" fill="url(#paint2_linear_55_799)"/>
</g>
<path d="M59.6923 62H28.3077C27.9609 62 27.6283 62.137 27.383 62.3808C27.1378 62.6246 27 62.9552 27 63.3V86.7C27 87.0448 27.1378 87.3754 27.383 87.6192C27.6283 87.863 27.9609 88 28.3077 88H59.6923C60.0391 88 60.3717 87.863 60.617 87.6192C60.8622 87.3754 61 87.0448 61 86.7V63.3C61 62.9552 60.8622 62.6246 60.617 62.3808C60.3717 62.137 60.0391 62 59.6923 62ZM37.4615 77.6V72.4H50.5385V77.6H37.4615ZM29.6154 77.6V72.4H34.8462V77.6H29.6154ZM53.1538 72.4H58.3846V77.6H53.1538V72.4ZM58.3846 69.8H45.3077V64.6H58.3846V69.8ZM42.6923 64.6V69.8H29.6154V64.6H42.6923ZM29.6154 80.2H42.6923V85.4H29.6154V80.2ZM45.3077 85.4V80.2H58.3846V85.4H45.3077Z" fill="white"/>
<rect x="43" width="2" height="28" fill="url(#paint3_linear_55_799)"/>
<rect x="43" y="122" width="2" height="28" fill="url(#paint4_linear_55_799)"/>
<defs>
<linearGradient id="paint0_linear_55_799" x1="44" y1="75" x2="1.88462e-06" y2="100" gradientUnits="userSpaceOnUse">
<stop offset="0.119792" stop-color="#3B52FF"/>
<stop offset="1" stop-color="#6EE6FD"/>
</linearGradient>
<linearGradient id="paint1_linear_55_799" x1="44" y1="75" x2="88" y2="100" gradientUnits="userSpaceOnUse">
<stop offset="0.130208" stop-color="#3B52FF"/>
<stop offset="1" stop-color="#6DE4FD"/>
</linearGradient>
<linearGradient id="paint2_linear_55_799" x1="44" y1="25" x2="44" y2="75" gradientUnits="userSpaceOnUse">
<stop stop-color="#6EE8FC"/>
<stop offset="0.916667" stop-color="#3B52FF"/>
</linearGradient>
<linearGradient id="paint3_linear_55_799" x1="44" y1="0" x2="44" y2="28" gradientUnits="userSpaceOnUse">
<stop stop-color="white" stop-opacity="0"/>
<stop offset="1" stop-color="#6CE0FD"/>
</linearGradient>
<linearGradient id="paint4_linear_55_799" x1="44" y1="122" x2="44" y2="150" gradientUnits="userSpaceOnUse">
<stop stop-color="#4F8BFF"/>
<stop offset="1" stop-color="white" stop-opacity="0"/>
</linearGradient>
</defs>
</svg>
